<svg width="112" height="112" viewBox="0 0 112 112" fill="none" xmlns="http://www.w3.org/2000/svg">
<path fill-rule="evenodd" clip-rule="evenodd" d="M67.771 90H24.2667C10.8646 90 0 79.1459 0 65.7568C0 52.3676 10.8646 41.5135 24.2667 41.5135C28.311 41.5135 32.1243 42.5019 35.4776 44.2502C40.1469 30.7199 53.0039 21 68.1333 21C87.2056 21 102.667 36.4462 102.667 55.5C102.667 55.8905 102.66 56.2795 102.647 56.6669C108.215 59.655 112 65.5278 112 72.2838C112 82.0682 104.061 90 94.2667 90H68.1333C68.0788 90 67.771 90 67.771 90H68.1333H67.771Z" fill="white"/>
</svg>
