<svg width="112" height="112" viewBox="0 0 112 112" fill="none" xmlns="http://www.w3.org/2000/svg">
<g clip-path="url(#clip0)">
<path fill-rule="evenodd" clip-rule="evenodd" d="M77.3228 75.533H43.2138C32.706 75.533 24.1878 66.9546 24.1878 56.3727C24.1878 45.7908 32.706 37.2125 43.2138 37.2125C46.3847 37.2125 49.3744 37.9937 52.0036 39.3754C55.6645 28.682 65.7449 21 77.6069 21C92.5602 21 104.682 33.2076 104.682 48.2665C104.682 48.5751 104.677 48.8825 104.667 49.1887C109.032 51.5503 112 56.1918 112 61.5312C112 69.2642 105.775 75.533 98.0964 75.533H77.6069C77.5642 75.5329 77.3228 75.533 77.3228 75.533H77.6069H77.3228Z" fill="black" fill-opacity="0.6"/>
<path fill-rule="evenodd" clip-rule="evenodd" d="M53.3156 82H19.0906C8.54717 82 0 73.4767 0 62.9626C0 52.4486 8.54717 43.9252 19.0906 43.9252C22.2723 43.9252 25.2722 44.7014 27.9103 46.0742C31.5836 35.4494 41.6983 27.8167 53.6006 27.8167C68.6048 27.8167 80.7681 39.946 80.7681 54.9083C80.7681 55.215 80.763 55.5205 80.7528 55.8247C85.1327 58.1712 88.1106 62.7828 88.1106 68.0881C88.1106 75.7714 81.8646 82 74.1598 82H53.6006C53.5578 82 53.3156 82 53.3156 82Z" fill="white"/>
</g>
<defs>
<clipPath id="clip0">
<rect width="112" height="112" fill="white"/>
</clipPath>
</defs>
</svg>
