<svg width="20" height="18" viewBox="0 0 20 18" fill="none" xmlns="http://www.w3.org/2000/svg">
<path fill-rule="evenodd" clip-rule="evenodd" d="M11.3565 0C6.59326 0 2.71979 3.87755 2.71979 8.64082V8.66939L1.00958 6.09388C0.842237 5.84082 0.49938 5.77143 0.246319 5.93878C-0.00674218 6.10612 -0.0761299 6.44898 0.091217 6.70204L2.57285 10.4367C2.66265 10.5714 2.8055 10.6571 2.96469 10.6776C2.98918 10.6816 3.00958 10.6816 3.03407 10.6816C3.16877 10.6816 3.29938 10.6327 3.40142 10.5388L6.8504 7.43265C7.07489 7.22857 7.0953 6.88163 6.89122 6.65306C6.68714 6.42857 6.3402 6.40816 6.11163 6.61224L3.82183 8.68163V8.64082C3.82183 4.48163 7.20142 1.10204 11.3565 1.10204C15.5116 1.10204 18.8953 4.48163 18.8953 8.64082C18.8953 12.8 15.5157 16.1796 11.3606 16.1796C9.34836 16.1796 7.45448 15.3959 6.03407 13.9714C5.81775 13.7551 5.47081 13.7551 5.25448 13.9714C5.03816 14.1878 5.03816 14.5347 5.25448 14.751C6.88714 16.3837 9.05448 17.2816 11.3606 17.2816C16.1198 17.2816 19.9973 13.4082 19.9973 8.64082C19.9973 3.87347 16.1198 0 11.3565 0Z" fill="white"/>
</svg>
