<svg width="20" height="20" viewBox="0 0 20 20" fill="none" xmlns="http://www.w3.org/2000/svg">
<path d="M19.3614 18.2168L14.6013 13.2662C15.8252 11.8113 16.4958 9.98069 16.4958 8.07499C16.4958 3.62251 12.8733 0 8.42082 0C3.96834 0 0.345825 3.62251 0.345825 8.07499C0.345825 12.5275 3.96834 16.15 8.42082 16.15C10.0923 16.15 11.6852 15.6458 13.0471 14.6888L17.8433 19.677C18.0438 19.8852 18.3134 20 18.6023 20C18.8758 20 19.1353 19.8957 19.3322 19.7061C19.7507 19.3034 19.7641 18.6357 19.3614 18.2168ZM8.42082 2.10652C11.7119 2.10652 14.3893 4.78391 14.3893 8.07499C14.3893 11.3661 11.7119 14.0435 8.42082 14.0435C5.12973 14.0435 2.45235 11.3661 2.45235 8.07499C2.45235 4.78391 5.12973 2.10652 8.42082 2.10652Z" fill="#3DA9F8"/>
</svg>
