<svg width="30" height="29" viewBox="0 0 30 29" fill="none" xmlns="http://www.w3.org/2000/svg">
<path d="M29.3136 13.0386L24.0642 18.156C23.8404 18.3744 23.7378 18.6882 23.7906 18.996L25.0302 26.2212C25.1694 27.033 24.8424 27.8376 24.1758 28.3224C23.799 28.5966 23.3574 28.7352 22.914 28.7352C22.5726 28.7352 22.2294 28.653 21.9126 28.4862L15.4236 25.0746C15.147 24.9294 14.817 24.9294 14.5404 25.0746L8.052 28.4862C7.3218 28.8708 6.4548 28.8078 5.7888 28.3224C5.1222 27.8376 4.7952 27.033 4.9344 26.2212L6.1734 18.9954C6.2262 18.6882 6.1236 18.3738 5.8998 18.1554L0.650398 13.0386C0.0605975 12.4638 -0.147602 11.6202 0.106798 10.836C0.361798 10.0518 1.026 9.492 1.8414 9.3738L9.0966 8.319C9.4056 8.274 9.6732 8.0802 9.8112 7.8L13.0554 1.2258C13.4196 0.487198 14.1588 0.0281982 14.982 0.0281982C15.8058 0.0281982 16.545 0.487198 16.9092 1.2258L20.1528 7.8C20.2908 8.0802 20.5578 8.274 20.8668 8.319L28.122 9.3732C28.938 9.492 29.6022 10.0518 29.8572 10.836C30.1116 11.6202 29.9034 12.4638 29.3136 13.0386Z" fill="white"/>
</svg>
