<svg width="112" height="112" viewBox="0 0 112 112" fill="none" xmlns="http://www.w3.org/2000/svg">
<g clip-path="url(#clip0)">
<path d="M56 112C86.9279 112 112 86.9279 112 56C112 25.0721 86.9279 0 56 0C25.0721 0 0 25.0721 0 56C0 86.9279 25.0721 112 56 112Z" stroke="#FFF308" stroke-opacity="0.2" stroke-width="3"/>
<path d="M55.6816 104.553C82.6726 104.553 104.553 82.6725 104.553 55.6816C104.553 28.6906 82.6726 6.81018 55.6816 6.81018C28.6907 6.81018 6.81024 28.6906 6.81024 55.6816C6.81024 82.6725 28.6907 104.553 55.6816 104.553Z" stroke="#FFF308" stroke-opacity="0.6" stroke-width="4"/>
<path d="M55.6816 98.6736C79.4255 98.6736 98.6738 79.4254 98.6738 55.6815C98.6738 31.9376 79.4255 12.6893 55.6816 12.6893C31.9377 12.6893 12.6895 31.9376 12.6895 55.6815C12.6895 79.4254 31.9377 98.6736 55.6816 98.6736Z" fill="#FFEC65"/>
</g>
<defs>
<clipPath id="clip0">
<rect width="112" height="112" fill="white"/>
</clipPath>
</defs>
</svg>
