<svg width="112" height="112" viewBox="0 0 112 112" fill="none" xmlns="http://www.w3.org/2000/svg">
<g clip-path="url(#clip0)">
<path d="M58.1745 104C84.7485 104 106.291 82.5097 106.291 56C106.291 29.4903 84.7485 8 58.1745 8C31.6005 8 10.058 29.4903 10.058 56C10.058 82.5097 31.6005 104 58.1745 104Z" stroke="#FFF308" stroke-opacity="0.2" stroke-width="3"/>
<path d="M57.9027 97.7627C81.1737 97.7627 100.039 78.9435 100.039 55.7288C100.039 32.5141 81.1737 13.6949 57.9027 13.6949C34.6316 13.6949 15.7667 32.5141 15.7667 55.7288C15.7667 78.9435 34.6316 97.7627 57.9027 97.7627Z" stroke="#FFF308" stroke-opacity="0.6" stroke-width="4"/>
<path d="M57.9032 92.3389C78.1715 92.3389 94.6022 75.948 94.6022 55.7287C94.6022 35.5095 78.1715 19.1185 57.9032 19.1185C37.6348 19.1185 21.2041 35.5095 21.2041 55.7287C21.2041 75.948 37.6348 92.3389 57.9032 92.3389Z" fill="#FFEC65"/>
<path fill-rule="evenodd" clip-rule="evenodd" d="M96.5415 49.4913H81.3361C76.6518 49.4913 72.8545 45.8226 72.8545 41.2971C72.8545 36.7715 76.6518 33.1028 81.3361 33.1028C82.7496 33.1028 84.0824 33.4369 85.2544 34.0278C86.8864 29.4546 91.3801 26.1693 96.6681 26.1693C103.334 26.1693 108.738 31.3901 108.738 37.8303C108.738 37.9623 108.736 38.0937 108.731 38.2247C110.677 39.2347 112 41.2197 112 43.5032C112 46.8103 109.225 49.4913 105.802 49.4913H96.6681C96.6617 49.4913 96.6554 49.4913 96.649 49.4913C96.649 49.4913 96.649 49.4913 96.649 49.4913H96.5415H96.6681H96.5415Z" fill="white"/>
<path fill-rule="evenodd" clip-rule="evenodd" d="M23.687 91.7967H8.48156C3.79732 91.7967 0 88.128 0 83.6025C0 79.0769 3.79732 75.4083 8.48156 75.4083C9.89511 75.4083 11.2279 75.7423 12.3999 76.3332C14.0319 71.76 18.5256 68.4747 23.8136 68.4747C30.4796 68.4747 35.8835 73.6955 35.8835 80.1357C35.8835 80.2677 35.8812 80.3992 35.8767 80.5301C37.8226 81.5401 39.1457 83.5251 39.1457 85.8086C39.1457 89.1158 36.3707 91.7967 32.9476 91.7967H23.8136C23.8073 91.7967 23.8009 91.7967 23.7945 91.7967C23.7946 91.7967 23.7946 91.7967 23.7946 91.7967H23.687H23.8136H23.687Z" fill="white"/>
<path fill-rule="evenodd" clip-rule="evenodd" d="M39.4537 39.7288H24.2483C19.564 39.7288 15.7667 36.0601 15.7667 31.5345C15.7667 27.009 19.564 23.3403 24.2483 23.3403C25.6618 23.3403 26.9946 23.6744 28.1667 24.2653C29.7986 19.6921 34.2924 16.4067 39.5803 16.4067C46.2464 16.4067 51.6502 21.6276 51.6502 28.0678C51.6502 28.1998 51.648 28.3312 51.6435 28.4622C53.5894 29.4722 54.9124 31.4572 54.9124 33.7407C54.9124 37.0478 52.1374 39.7288 48.7143 39.7288H39.5803C39.574 39.7288 39.5676 39.7288 39.5613 39.7288C39.5613 39.7288 39.5613 39.7288 39.5613 39.7288H39.4537H39.5803H39.4537Z" fill="white"/>
</g>
<defs>
<clipPath id="clip0">
<rect width="112" height="112" fill="white"/>
</clipPath>
</defs>
</svg>
