<svg width="112" height="124" viewBox="0 0 112 124" fill="none" xmlns="http://www.w3.org/2000/svg">
<path fill-rule="evenodd" clip-rule="evenodd" d="M67.771 69.0387H24.2667C10.8646 69.0387 0 58.1786 0 44.7819C0 31.3852 10.8646 20.525 24.2667 20.525C28.311 20.525 32.1243 21.514 35.4776 23.2632C40.1469 9.72539 53.0039 0 68.1333 0C87.2056 0 102.667 15.4548 102.667 34.5194C102.667 34.9101 102.66 35.2993 102.647 35.6869C108.215 38.6767 112 44.5528 112 51.3126C112 61.1025 104.061 69.0387 94.2667 69.0387H68.1333C68.0788 69.0387 67.771 69.0387 67.771 69.0387H68.1333H67.771Z" fill="white"/>
<path fill-rule="evenodd" clip-rule="evenodd" d="M33.0009 75.3512C33.287 74.2835 34.3884 73.6508 35.4559 73.9368C36.5256 74.2233 37.1605 75.3219 36.8745 76.3887L31.1643 97.6911C30.8781 98.7587 29.7767 99.3914 28.7092 99.1055C27.6395 98.819 27.0046 97.7203 27.2906 96.6535L33.0009 75.3512ZM65.0465 75.4812C65.3327 74.4136 66.434 73.7809 67.5015 74.0668C68.5712 74.3533 69.2061 75.4519 68.9202 76.5187L63.2099 97.8211C62.9237 98.8888 61.8224 99.5214 60.7549 99.2355C59.6852 98.949 59.0503 97.8504 59.3362 96.7836L65.0465 75.4812ZM84.5564 75.2636C84.8421 74.1976 85.9431 73.5663 87.0106 73.8522C88.0803 74.1388 88.7149 75.2384 88.4301 76.3011L85.14 88.5747C84.8543 89.6407 83.7533 90.2719 82.6858 89.986C81.6161 89.6995 80.9815 88.5998 81.2664 87.5372L84.5564 75.2636ZM43.2084 75.6366C43.4954 74.5658 44.5974 73.9306 45.6649 74.2165C46.7346 74.503 47.3677 75.6083 47.082 76.6741L38.261 109.581C37.9739 110.652 36.8719 111.287 35.8044 111.002C34.7347 110.715 34.1016 109.61 34.3873 108.544L43.2084 75.6366ZM54.5175 75.6532C54.8036 74.5858 55.9049 73.9533 56.9724 74.2393C58.0421 74.5258 58.678 75.6205 58.3911 76.6908L46.107 122.517C45.8209 123.585 44.7196 124.217 43.6521 123.931C42.5824 123.645 41.9464 122.55 42.2333 121.48L54.5175 75.6532ZM74.8427 75.4869C75.1297 74.4161 76.2317 73.7809 77.2993 74.0668C78.3689 74.3533 79.0021 75.4586 78.7164 76.5244L69.8953 109.432C69.6083 110.503 68.5063 111.138 67.4387 110.852C66.3691 110.565 65.7359 109.46 66.0216 108.394L74.8427 75.4869Z" fill="#ADE8FF"/>
</svg>
