<svg width="112" height="131" viewBox="0 0 112 131" fill="none" xmlns="http://www.w3.org/2000/svg">
<g clip-path="url(#clip0)">
<path d="M30.2114 59.9739C46.8967 59.9739 60.4228 46.5483 60.4228 29.9869C60.4228 13.4256 46.8967 0 30.2114 0C13.5261 0 0 13.4256 0 29.9869C0 46.5483 13.5261 59.9739 30.2114 59.9739Z" stroke="#FFF308" stroke-opacity="0.2" stroke-width="3"/>
<path d="M30.2114 56.152C44.7702 56.152 56.5724 44.4375 56.5724 29.9869C56.5724 15.5363 44.7702 3.82184 30.2114 3.82184C15.6527 3.82184 3.85046 15.5363 3.85046 29.9869C3.85046 44.4375 15.6527 56.152 30.2114 56.152Z" stroke="#FFF308" stroke-opacity="0.6" stroke-width="4"/>
<path d="M30.2114 53.2121C43.1344 53.2121 53.6105 42.8139 53.6105 29.987C53.6105 17.16 43.1344 6.76178 30.2114 6.76178C17.2885 6.76178 6.81238 17.16 6.81238 29.987C6.81238 42.8139 17.2885 53.2121 30.2114 53.2121Z" fill="#FFEC65"/>
<path fill-rule="evenodd" clip-rule="evenodd" d="M72.8005 81.6311H34.2434C22.3653 81.6311 12.7362 72.0736 12.7362 60.2838C12.7362 48.494 22.3653 38.9364 34.2434 38.9364C37.8278 38.9364 41.2074 39.8068 44.1794 41.3462C48.3177 29.4322 59.7127 20.8733 73.1217 20.8733C90.0251 20.8733 103.728 34.4744 103.728 51.2522C103.728 51.5961 103.722 51.9386 103.711 52.2797C108.645 54.9109 112 60.0822 112 66.0311C112 74.6468 104.963 81.6311 96.2832 81.6311H73.1217C73.0734 81.6311 72.8005 81.6311 72.8005 81.6311H73.1217H72.8005Z" fill="white"/>
<path fill-rule="evenodd" clip-rule="evenodd" d="M41.9843 87.1863C42.238 86.2467 43.2141 85.6899 44.1602 85.9416C45.1082 86.1937 45.671 87.1606 45.4175 88.0994L40.3566 106.847C40.1029 107.786 39.1269 108.343 38.1807 108.091C37.2327 107.839 36.67 106.872 36.9234 105.934L41.9843 87.1863ZM70.3859 87.3008C70.6395 86.3612 71.6156 85.8044 72.5617 86.056C73.5098 86.3082 74.0725 87.275 73.8191 88.2138L68.7581 106.961C68.5045 107.901 67.5284 108.457 66.5823 108.206C65.6342 107.954 65.0715 106.987 65.325 106.048L70.3859 87.3008ZM87.6772 87.1092C87.9304 86.1711 88.9062 85.6156 89.8523 85.8672C90.8004 86.1193 91.3628 87.0871 91.1104 88.0223L88.1945 98.8237C87.9412 99.7618 86.9654 100.317 86.0193 100.066C85.0713 99.8136 84.5088 98.8459 84.7613 97.9107L87.6772 87.1092ZM51.0311 87.4375C51.2855 86.4951 52.2622 85.9361 53.2083 86.1877C54.1563 86.4399 54.7175 87.4126 54.4643 88.3506L46.6463 117.311C46.3919 118.253 45.4152 118.812 44.4691 118.561C43.521 118.308 42.9599 117.336 43.2131 116.398L51.0311 87.4375ZM61.0542 87.4522C61.3078 86.5128 62.2838 85.9562 63.2299 86.2078C64.178 86.4599 64.7416 87.4234 64.4873 88.3652L53.6001 128.695C53.3465 129.634 52.3704 130.191 51.4243 129.939C50.4763 129.687 49.9127 128.724 50.1669 127.782L61.0542 87.4522ZM79.0681 87.3058C79.3225 86.3634 80.2992 85.8044 81.2453 86.056C82.1933 86.3082 82.7545 87.2809 82.5013 88.2188L74.6833 117.179C74.4289 118.121 73.4522 118.68 72.5061 118.429C71.558 118.177 70.9969 117.204 71.2501 116.266L79.0681 87.3058Z" fill="#ADE8FF"/>
</g>
<defs>
<clipPath id="clip0">
<rect width="112" height="131" fill="white"/>
</clipPath>
</defs>
</svg>
