<svg width="112" height="124" viewBox="0 0 112 124" fill="none" xmlns="http://www.w3.org/2000/svg">
<g clip-path="url(#clip0)">
<path fill-rule="evenodd" clip-rule="evenodd" d="M98.8397 68.8265L104.139 58.5056L106.128 54.6321H101.778H95.8037L100.282 42.4732L101.622 38.8843H97.7951H79.8724H77.8333L77.3071 40.8565L70.0053 68.2239L69.6849 69.4248H68.0788H24.2667C10.8646 69.4248 0 58.5039 0 45.0323C0 31.5607 10.8646 20.6398 24.2667 20.6398C28.311 20.6398 32.1243 21.6343 35.4776 23.3933C40.1469 9.77977 53.0039 0 68.1333 0C87.2056 0 102.667 15.5413 102.667 34.7124C102.667 35.1053 102.66 35.4967 102.647 35.8865C108.215 38.893 112 44.8019 112 51.5995C112 59.8547 106.417 66.7993 98.8397 68.8265Z" fill="white"/>
<path fill-rule="evenodd" clip-rule="evenodd" d="M22.1786 75.6133C22.4632 74.5513 23.5582 73.9221 24.6195 74.2065C25.6831 74.4914 26.3144 75.5842 26.03 76.6453L20.3526 97.8339C20.068 98.8959 18.973 99.5251 17.9116 99.2407C16.8481 98.9558 16.2168 97.863 16.5011 96.8019L22.1786 75.6133ZM54.0402 75.7427C54.3248 74.6807 55.4198 74.0514 56.4812 74.3358C57.5447 74.6208 58.176 75.7135 57.8916 76.7746L52.2142 97.9633C51.9296 99.0252 50.8346 99.6545 49.7732 99.3701C48.7097 99.0851 48.0784 97.9924 48.3627 96.9313L54.0402 75.7427ZM73.4381 75.5262C73.7222 74.4659 74.8168 73.838 75.8782 74.1224C76.9417 74.4074 77.5727 75.5012 77.2895 76.5582L74.0183 88.7662C73.7343 89.8265 72.6396 90.4544 71.5782 90.17C70.5147 89.885 69.8837 88.7912 70.1669 87.7342L73.4381 75.5262ZM32.3275 75.8972C32.6129 74.8321 33.7086 74.2003 34.7699 74.4847C35.8335 74.7697 36.463 75.869 36.1789 76.9291L27.4085 109.661C27.1231 110.726 26.0274 111.358 24.9661 111.073C23.9025 110.788 23.273 109.689 23.5571 108.629L32.3275 75.8972ZM43.5717 75.9138C43.8561 74.852 44.9511 74.2229 46.0125 74.5073C47.076 74.7923 47.7083 75.8812 47.4231 76.9457L35.2095 122.528C34.925 123.589 33.83 124.218 32.7686 123.934C31.7051 123.649 31.0728 122.56 31.358 121.496L43.5717 75.9138ZM63.7802 75.7483C64.0655 74.6832 65.1612 74.0514 66.2226 74.3358C67.2861 74.6208 67.9156 75.7202 67.6316 76.7803L58.8612 109.512C58.5758 110.577 57.4801 111.209 56.4187 110.924C55.3552 110.639 54.7257 109.54 55.0097 108.48L63.7802 75.7483Z" fill="#ADE8FF"/>
<path fill-rule="evenodd" clip-rule="evenodd" d="M79.7458 41.8666L72.4358 69.2339H84.3977L81.0749 97.6887L101.676 57.6144L91.8026 57.6144L97.6886 41.8666H79.7458Z" fill="#FFF467"/>
</g>
<defs>
<clipPath id="clip0">
<rect width="112" height="124" fill="white"/>
</clipPath>
</defs>
</svg>
