<svg width="112" height="112" viewBox="0 0 112 112" fill="none" xmlns="http://www.w3.org/2000/svg">
<path fill-rule="evenodd" clip-rule="evenodd" d="M66.1107 83.4124H61.7531C61.7483 81.9935 61.7569 80.4125 61.7569 80.4125C61.7569 80.4125 65.3841 82.5171 66.1291 82.8932C66.1132 83.0664 66.1072 83.2397 66.1107 83.4124ZM52.3772 83.4124H48.0498C48.0532 83.2482 48.0479 83.0833 48.0338 82.9185C48.9164 82.2576 52.4044 80.4125 52.4044 80.4125C52.4044 80.4125 52.3724 81.9839 52.3772 83.4124ZM32.7417 83.4124H24.2667C10.8646 83.4124 0 72.4935 0 59.0243C0 45.5551 10.8646 34.6361 24.2667 34.6361C28.311 34.6361 32.1243 35.6304 35.4776 37.3891C40.1469 23.778 53.0039 14 68.1333 14C87.2056 14 102.667 29.5385 102.667 48.7062C102.667 49.0991 102.66 49.4904 102.647 49.8801C108.215 52.8861 112 58.7939 112 65.5903C112 75.4332 104.061 83.4124 94.2667 83.4124H81.4202C81.3327 81.8988 80.5082 80.4567 79.0933 79.6421C79.0933 79.6421 78.708 79.4291 78.1242 79.0319C78.2442 77.3099 77.3969 75.5889 75.7968 74.6677C74.1624 73.7268 72.1931 73.8828 70.7475 74.9064C70.2038 74.5541 66.1269 72.3538 66.1269 72.3538C66.1269 72.3538 70.0026 70.3795 70.8106 69.8459C72.2496 70.8303 74.1847 70.968 75.7968 70.0399C77.4296 69.1 78.2787 67.324 78.1146 65.5656C79.064 65.0087 79.0933 65.0655 79.0933 65.0655C81.325 63.7808 82.0908 60.9268 80.8006 58.6985C79.511 56.4713 76.6523 55.7025 74.4171 56.9893C74.4171 56.9893 74.3125 57.0702 73.4049 57.5227C71.969 56.5566 70.0494 56.4271 68.4484 57.3488C66.8283 58.2815 65.9797 60.0373 66.1269 61.7822C65.2953 62.2786 61.7569 64.4258 61.7569 64.4258C61.7569 64.4258 61.7664 59.8523 61.8064 59.2248C63.3598 58.4666 64.429 56.8757 64.429 55.0349C64.429 53.1722 63.3316 51.5636 61.7462 50.8168C61.7693 49.9992 61.7569 49.701 61.7569 49.701C61.7569 47.1316 59.6611 45.0432 57.0807 45.0432C54.5015 45.0432 52.4044 47.1274 52.4044 49.701C52.4044 49.701 52.4159 49.7993 52.4085 50.8192C50.8262 51.5667 49.7323 53.173 49.7323 55.0349C49.7323 56.9037 50.837 58.5169 52.4309 59.2604C52.3873 60.4849 52.4044 64.4258 52.4044 64.4258C52.4044 64.4258 48.9162 62.3725 48.0376 61.7506C48.1726 60.0161 47.3247 58.2767 45.7129 57.3488C44.1062 56.4239 42.176 56.5589 40.7377 57.5361C39.8297 57.0794 39.7442 56.9893 39.7442 56.9893C37.5126 55.7046 34.6509 56.4703 33.3607 58.6985C32.0711 60.9257 32.8327 63.7787 35.068 65.0655C35.068 65.0655 35.2801 65.065 36.0433 65.5964C35.8913 67.3447 36.7398 69.1046 38.3645 70.0399C39.9834 70.9719 41.9308 70.8277 43.3724 69.8302C43.8526 70.2171 48.3834 72.3538 48.3834 72.3538C48.3834 72.3538 44.5673 74.2692 43.4079 74.9015C41.9632 73.8812 39.9981 73.7273 38.3645 74.6677C36.7589 75.592 35.9112 77.3247 36.0393 79.0541C35.2505 79.4689 35.068 79.6421 35.068 79.6421C33.6551 80.4555 32.8297 81.898 32.7417 83.4124Z" fill="white"/>
<path fill-rule="evenodd" clip-rule="evenodd" d="M55.0765 75.815L44.7764 81.7447L45.1093 82.3197C45.6633 83.2765 45.3334 84.5007 44.3768 85.0514C43.4183 85.6032 42.1928 85.2762 41.638 84.318L41.3051 83.7431L38.4081 85.4108C37.452 85.9613 36.2271 85.6307 35.6748 84.6769C35.1214 83.7211 35.4524 82.4975 36.404 81.9496L39.301 80.2818L38.9681 79.7069C38.4141 78.75 38.744 77.5259 39.7006 76.9752C40.6591 76.4234 41.8846 76.7504 42.4393 77.7086L42.7722 78.2835L53.0724 72.3538L42.7722 66.4241L42.4393 66.9991C41.8853 67.9559 40.6572 68.2831 39.7006 67.7324C38.742 67.1806 38.4133 65.9589 38.9681 65.0007L39.301 64.4258L36.404 62.758C35.4479 62.2076 35.1225 60.9846 35.6748 60.0307C36.2282 59.0749 37.4565 58.7489 38.4081 59.2968L41.3051 60.9646L41.638 60.3896C42.1921 59.4328 43.4202 59.1055 44.3768 59.6563C45.3354 60.2081 45.664 61.4298 45.1093 62.388L44.7764 62.9629L55.0765 68.8926V57.0332H54.4107C53.3026 57.0332 52.4044 56.1363 52.4044 55.0349C52.4044 53.9312 53.3011 53.0365 54.4107 53.0365H55.0765V49.701C55.0765 48.6001 55.976 47.7076 57.0806 47.7076C58.1875 47.7076 59.0847 48.6053 59.0847 49.701V53.0365H59.7505C60.8586 53.0365 61.7569 53.9335 61.7569 55.0349C61.7569 56.1385 60.8601 57.0332 59.7505 57.0332H59.0847V68.8926L69.3849 62.9629L69.052 62.388C68.498 61.4311 68.8278 60.207 69.7844 59.6563C70.743 59.1044 71.9684 59.4315 72.5232 60.3896L72.8561 60.9646L75.7531 59.2968C76.7093 58.7463 77.9342 59.0769 78.4865 60.0307C79.0399 60.9865 78.7089 62.2102 77.7572 62.758L74.8602 64.4258L75.1931 65.0007C75.7472 65.9576 75.4173 67.1817 74.4607 67.7324C73.5021 68.2843 72.2767 67.9572 71.7219 66.9991L71.389 66.4241L61.0888 72.3538L71.389 78.2835L71.7219 77.7086C72.276 76.7517 73.5041 76.4245 74.4607 76.9752C75.4192 77.527 75.7479 78.7487 75.1931 79.7069L74.8602 80.2818L77.7572 81.9496C78.7134 82.5 79.0388 83.723 78.4865 84.6769C77.933 85.6327 76.7048 85.9587 75.7531 85.4108L72.8561 83.7431L72.5232 84.318C71.9692 85.2748 70.741 85.6021 69.7844 85.0514C68.8259 84.4995 68.4972 83.2778 69.052 82.3197L69.3849 81.7447L59.0847 75.815V87.6744H59.7505C60.8586 87.6744 61.7569 88.5713 61.7569 89.6727C61.7569 90.7764 60.8601 91.6711 59.7505 91.6711H59.0847V95.0066C59.0847 96.1075 58.1852 97 57.0806 97C55.9738 97 55.0765 96.1023 55.0765 95.0066V91.6711H54.4107C53.3026 91.6711 52.4044 90.7741 52.4044 89.6727C52.4044 88.5691 53.3011 87.6744 54.4107 87.6744H55.0765V75.815Z" fill="white"/>
</svg>
