<svg width="117" height="108" viewBox="0 0 117 108" fill="none" xmlns="http://www.w3.org/2000/svg">
<path d="M11.689 79.4263L17.0597 63.9021L22.4263 79.4142" stroke="#98CDF9" stroke-width="1.4" stroke-linecap="round" stroke-linejoin="round"/>
<path d="M1 102.29V79.4263L6.34649 63.9021L11.7253 79.378" stroke="#98CDF9" stroke-width="1.4" stroke-linecap="round" stroke-linejoin="round"/>
<path d="M22.4263 79.3537L27.7929 63.8295L33.1596 79.3457" stroke="#98CDF9" stroke-width="1.4" stroke-linecap="round" stroke-linejoin="round"/>
<path d="M33.1595 79.4262L37.6224 66.5148" stroke="#98CDF9" stroke-width="1.4" stroke-linecap="round" stroke-linejoin="round"/>
<path d="M28.4385 102.29V93.9922L32.8771 86.8139L37.3157 93.9882V102.29" stroke="#98CDF9" stroke-width="1.4" stroke-linecap="round" stroke-linejoin="round"/>
<path d="M19.9651 102.29V93.9922L24.2019 86.8139L28.4388 93.9882V102.29" stroke="#98CDF9" stroke-width="1.4" stroke-linecap="round" stroke-linejoin="round"/>
<path d="M11.0876 102.29V93.9922L15.5262 86.8139L19.9648 93.9882V102.29" stroke="#98CDF9" stroke-width="1.4" stroke-linecap="round" stroke-linejoin="round"/>
<path d="M15.5262 96.6534H32.8771" stroke="#98CDF9" stroke-width="1.4" stroke-linecap="round" stroke-linejoin="round"/>
<path d="M27.7931 60.6813C28.2388 60.6813 28.6001 60.3208 28.6001 59.8761C28.6001 59.4314 28.2388 59.0709 27.7931 59.0709C27.3474 59.0709 26.9861 59.4314 26.9861 59.8761C26.9861 60.3208 27.3474 60.6813 27.7931 60.6813Z" fill="#98CDF9"/>
<path d="M17.0556 60.6813C17.5013 60.6813 17.8626 60.3208 17.8626 59.8761C17.8626 59.4314 17.5013 59.0709 17.0556 59.0709C16.6098 59.0709 16.2485 59.4314 16.2485 59.8761C16.2485 60.3208 16.6098 60.6813 17.0556 60.6813Z" fill="#98CDF9"/>
<path d="M6.32215 60.6813C6.76786 60.6813 7.12917 60.3208 7.12917 59.8761C7.12917 59.4314 6.76786 59.0709 6.32215 59.0709C5.87645 59.0709 5.51514 59.4314 5.51514 59.8761C5.51514 60.3208 5.87645 60.6813 6.32215 60.6813Z" fill="#98CDF9"/>
<path d="M106.949 90.997L111.376 78.4198L115.802 91.0292V102.29" stroke="#98CDF9" stroke-width="1.4" stroke-linecap="round" stroke-linejoin="round"/>
<path d="M98.0963 91.0372L102.519 78.4399L106.941 91.0292" stroke="#98CDF9" stroke-width="1.4" stroke-linecap="round" stroke-linejoin="round"/>
<path d="M89.1708 91.0372L93.6336 78.4399L98.0359 91.1218" stroke="#98CDF9" stroke-width="1.4" stroke-linecap="round" stroke-linejoin="round"/>
<path d="M111.36 75.4445C111.805 75.4445 112.167 75.084 112.167 74.6393C112.167 74.1946 111.805 73.8341 111.36 73.8341C110.914 73.8341 110.553 74.1946 110.553 74.6393C110.553 75.084 110.914 75.4445 111.36 75.4445Z" fill="#98CDF9"/>
<path d="M102.591 75.4445C103.037 75.4445 103.398 75.084 103.398 74.6393C103.398 74.1946 103.037 73.8341 102.591 73.8341C102.146 73.8341 101.784 74.1946 101.784 74.6393C101.784 75.084 102.146 75.4445 102.591 75.4445Z" fill="#98CDF9"/>
<path d="M93.6818 75.4445C94.1275 75.4445 94.4888 75.084 94.4888 74.6393C94.4888 74.1946 94.1275 73.8341 93.6818 73.8341C93.2361 73.8341 92.8748 74.1946 92.8748 74.6393C92.8748 75.084 93.2361 75.4445 93.6818 75.4445Z" fill="#98CDF9"/>
<path d="M1 106.316H116" stroke="#0391FA" stroke-width="1.4" stroke-linecap="round" stroke-linejoin="round"/>
<path d="M42.7027 28.2116C44.2002 28.2116 45.4142 27.0003 45.4142 25.5061C45.4142 24.0119 44.2002 22.8006 42.7027 22.8006C41.2051 22.8006 39.9911 24.0119 39.9911 25.5061C39.9911 27.0003 41.2051 28.2116 42.7027 28.2116Z" stroke="#0391FA" stroke-width="1.4" stroke-linecap="round" stroke-linejoin="round"/>
<path d="M63.1404 44.7183V48.7443" stroke="#0391FA" stroke-width="1.4" stroke-linecap="round" stroke-linejoin="round"/>
<path d="M42.6624 28.2116V32.6402" stroke="#0391FA" stroke-width="1.4" stroke-linecap="round" stroke-linejoin="round"/>
<path d="M83.6306 28.2116C85.1282 28.2116 86.3422 27.0003 86.3422 25.5061C86.3422 24.0119 85.1282 22.8006 83.6306 22.8006C82.1331 22.8006 80.9191 24.0119 80.9191 25.5061C80.9191 27.0003 82.1331 28.2116 83.6306 28.2116Z" stroke="#0391FA" stroke-width="1.4" stroke-linecap="round" stroke-linejoin="round"/>
<path d="M83.5862 28.2116V32.6402" stroke="#0391FA" stroke-width="1.4" stroke-linecap="round" stroke-linejoin="round"/>
<path d="M53.6581 6.41093C55.1557 6.41093 56.3697 5.19965 56.3697 3.70546C56.3697 2.21128 55.1557 1 53.6581 1C52.1605 1 50.9465 2.21128 50.9465 3.70546C50.9465 5.19965 52.1605 6.41093 53.6581 6.41093Z" stroke="#0391FA" stroke-width="1.4" stroke-linecap="round" stroke-linejoin="round"/>
<path d="M53.6537 6.41086V10.8394" stroke="#0391FA" stroke-width="1.4" stroke-linecap="round" stroke-linejoin="round"/>
<path d="M72.7477 6.41093C74.2453 6.41093 75.4593 5.19965 75.4593 3.70546C75.4593 2.21128 74.2453 1 72.7477 1C71.2501 1 70.0361 2.21128 70.0361 3.70546C70.0361 5.19965 71.2501 6.41093 72.7477 6.41093Z" stroke="#0391FA" stroke-width="1.4" stroke-linecap="round" stroke-linejoin="round"/>
<path d="M72.744 6.41086V10.6744" stroke="#0391FA" stroke-width="1.4" stroke-linecap="round" stroke-linejoin="round"/>
<path d="M37.3156 105.913V79.6316C37.2903 69.7168 37.8508 59.8091 38.9942 49.9601L41.2539 34.1501C41.3628 33.216 41.8955 32.7249 42.6581 32.7249C43.4651 32.7249 43.9614 33.216 44.0704 34.1501L46.4511 49.9601C47.3509 57.5491 47.7786 65.2588 48.0086 72.9082" stroke="#0391FA" stroke-width="1.4" stroke-linecap="round" stroke-linejoin="round"/>
<path d="M48.0089 72.9001L48.2107 57.7705C48.2056 47.8545 48.7863 37.9468 49.9498 28.0989L52.2377 12.2889C52.3466 11.3548 52.8954 10.8637 53.658 10.8637C54.465 10.8637 54.9694 11.3548 55.0784 12.2889L57.3622 28.0989C58.5271 37.9467 59.1092 47.8544 59.1054 57.7705V64.9488" stroke="#0391FA" stroke-width="1.4" stroke-linecap="round" stroke-linejoin="round"/>
<path d="M63.1403 44.541C64.6379 44.541 65.8519 43.3297 65.8519 41.8355C65.8519 40.3413 64.6379 39.1301 63.1403 39.1301C61.6427 39.1301 60.4287 40.3413 60.4287 41.8355C60.4287 43.3297 61.6427 44.541 63.1403 44.541Z" stroke="#0391FA" stroke-width="1.4" stroke-linecap="round" stroke-linejoin="round"/>
<path d="M89.0819 106.006V79.7201C89.0951 69.8045 88.5225 59.8968 87.367 50.0485L85.0952 34.2385C84.9863 33.3045 84.4456 32.8133 83.6829 32.8133C82.8759 32.8133 82.3756 33.3045 82.2666 34.2385L79.9707 50.0485C79.0345 57.9354 78.3566 65.2708 78.175 73.206" stroke="#0391FA" stroke-width="1.4" stroke-linecap="round" stroke-linejoin="round"/>
<path d="M78.1954 73.206V57.7301C78.2059 47.8144 77.6306 37.9067 76.4724 28.0586L74.1886 12.2485C74.0796 11.3145 73.5349 10.8233 72.7722 10.8233C71.9652 10.8233 71.4649 11.3145 71.3519 12.2485L69.0519 28.0586C67.883 37.9061 67.2969 47.8138 67.2966 57.7301V65.2104" stroke="#0391FA" stroke-width="1.4" stroke-linecap="round" stroke-linejoin="round"/>
<path fill-rule="evenodd" clip-rule="evenodd" d="M72.8246 106.316H53.4562V88.1828L63.1404 48.3457L72.8246 88.1788V106.316Z" stroke="#0391FA" stroke-width="1.4" stroke-linecap="round" stroke-linejoin="round"/>
<path fill-rule="evenodd" clip-rule="evenodd" d="M53.4563 106.316H42.5615V88.0337L48.0089 72.5015L53.4563 88.0257V106.316Z" stroke="#0391FA" stroke-width="1.4" stroke-linecap="round" stroke-linejoin="round"/>
<path d="M55.4738 51.965V59.6144" stroke="#0391FA" stroke-width="1.4" stroke-linecap="round" stroke-linejoin="round"/>
<path d="M51.8422 53.9779V62.0299" stroke="#0391FA" stroke-width="1.4" stroke-linecap="round" stroke-linejoin="round"/>
<path d="M44.5787 59.6144V67.6664" stroke="#0391FA" stroke-width="1.4" stroke-linecap="round" stroke-linejoin="round"/>
<path d="M40.9473 62.03V70.082" stroke="#0391FA" stroke-width="1.4" stroke-linecap="round" stroke-linejoin="round"/>
<path d="M70.9321 51.965V59.6144" stroke="#0391FA" stroke-width="1.4" stroke-linecap="round" stroke-linejoin="round"/>
<path d="M74.5636 53.9779V62.0299" stroke="#0391FA" stroke-width="1.4" stroke-linecap="round" stroke-linejoin="round"/>
<path d="M82.1055 59.6144V67.6664" stroke="#0391FA" stroke-width="1.4" stroke-linecap="round" stroke-linejoin="round"/>
<path d="M85.7369 62.03V70.082" stroke="#0391FA" stroke-width="1.4" stroke-linecap="round" stroke-linejoin="round"/>
<path d="M38.1227 42.3027H45.2971" stroke="#0391FA" stroke-width="1.4" stroke-linecap="round" stroke-linejoin="round"/>
<path d="M51.0349 20.5623H56.2805" stroke="#0391FA" stroke-width="1.4" stroke-linecap="round" stroke-linejoin="round"/>
<path d="M70.1453 20.5623H75.3909" stroke="#0391FA" stroke-width="1.4" stroke-linecap="round" stroke-linejoin="round"/>
<path d="M81.4757 42.3027H88.1578" stroke="#0391FA" stroke-width="1.4" stroke-linecap="round" stroke-linejoin="round"/>
<path fill-rule="evenodd" clip-rule="evenodd" d="M49.6227 97.5954C49.6227 96.706 48.9001 95.985 48.0087 95.985C47.1173 95.985 46.3947 96.706 46.3947 97.5954V106.316H49.6227V97.5954Z" stroke="#0391FA" stroke-width="1.4" stroke-linecap="round" stroke-linejoin="round"/>
<path fill-rule="evenodd" clip-rule="evenodd" d="M83.7194 106.296H72.8247V88.0096L78.2721 72.4774L83.7194 88.0016V106.296Z" stroke="#0391FA" stroke-width="1.4" stroke-linecap="round" stroke-linejoin="round"/>
<path fill-rule="evenodd" clip-rule="evenodd" d="M79.8859 97.5713C79.8859 96.6819 79.1633 95.9609 78.2719 95.9609C77.3805 95.9609 76.6578 96.6819 76.6578 97.5713V106.292H79.8859V97.5713Z" stroke="#0391FA" stroke-width="1.4" stroke-linecap="round" stroke-linejoin="round"/>
<path fill-rule="evenodd" clip-rule="evenodd" d="M66.9736 82.8886C66.9736 80.7763 65.2573 79.0639 63.1402 79.0639C61.0231 79.0639 59.3069 80.7763 59.3069 82.8886V106.316H66.9736V82.8886Z" stroke="#0391FA" stroke-width="1.4" stroke-linecap="round" stroke-linejoin="round"/>
</svg>
