<svg width="117" height="119" viewBox="0 0 117 119" fill="none" xmlns="http://www.w3.org/2000/svg">
<path d="M6.13606 71.2266C6.63284 71.2266 7.03556 70.8272 7.03556 70.3345C7.03556 69.8418 6.63284 69.4424 6.13606 69.4424C5.63929 69.4424 5.23657 69.8418 5.23657 70.3345C5.23657 70.8272 5.63929 71.2266 6.13606 71.2266Z" fill="#98CDF9"/>
<path d="M17.083 44.401C17.5797 44.401 17.9825 44.0016 17.9825 43.5089C17.9825 43.0162 17.5797 42.6168 17.083 42.6168C16.5862 42.6168 16.1835 43.0162 16.1835 43.5089C16.1835 44.0016 16.5862 44.401 17.083 44.401Z" fill="#98CDF9"/>
<path d="M8.87959 57.0555C9.37637 57.0555 9.77909 56.6561 9.77909 56.1634C9.77909 55.6707 9.37637 55.2713 8.87959 55.2713C8.38282 55.2713 7.9801 55.6707 7.9801 56.1634C7.9801 56.6561 8.38282 57.0555 8.87959 57.0555Z" fill="#98CDF9"/>
<path d="M29.4914 35.529C29.9882 35.529 30.3909 35.1296 30.3909 34.6369C30.3909 34.1442 29.9882 33.7448 29.4914 33.7448C28.9946 33.7448 28.5919 34.1442 28.5919 34.6369C28.5919 35.1296 28.9946 35.529 29.4914 35.529Z" fill="#98CDF9"/>
<path d="M62.957 35.7921C63.4538 35.7921 63.8565 35.3927 63.8565 34.9C63.8565 34.4073 63.4538 34.0079 62.957 34.0079C62.4602 34.0079 62.0575 34.4073 62.0575 34.9C62.0575 35.3927 62.4602 35.7921 62.957 35.7921Z" fill="#98CDF9"/>
<path d="M46.1409 32.139C46.6377 32.139 47.0404 31.7396 47.0404 31.2469C47.0404 30.7542 46.6377 30.3548 46.1409 30.3548C45.6442 30.3548 45.2415 30.7542 45.2415 31.2469C45.2415 31.7396 45.6442 32.139 46.1409 32.139Z" fill="#98CDF9"/>
<path d="M16.9705 98.4224C17.4673 98.4224 17.87 98.023 17.87 97.5303C17.87 97.0376 17.4673 96.6382 16.9705 96.6382C16.4738 96.6382 16.071 97.0376 16.071 97.5303C16.071 98.023 16.4738 98.4224 16.9705 98.4224Z" fill="#98CDF9"/>
<path d="M8.67268 85.9731C9.16946 85.9731 9.57218 85.5736 9.57218 85.0809C9.57218 84.5883 9.16946 84.1888 8.67268 84.1888C8.17591 84.1888 7.77319 84.5883 7.77319 85.0809C7.77319 85.5736 8.17591 85.9731 8.67268 85.9731Z" fill="#98CDF9"/>
<path d="M29.2755 107.013C29.7722 107.013 30.175 106.614 30.175 106.121C30.175 105.629 29.7722 105.229 29.2755 105.229C28.7787 105.229 28.376 105.629 28.376 106.121C28.376 106.614 28.7787 107.013 29.2755 107.013Z" fill="#98CDF9"/>
<path d="M62.3858 107.013C62.8826 107.013 63.2853 106.614 63.2853 106.121C63.2853 105.629 62.8826 105.229 62.3858 105.229C61.889 105.229 61.4863 105.629 61.4863 106.121C61.4863 106.614 61.889 107.013 62.3858 107.013Z" fill="#98CDF9"/>
<path d="M69.5233 91.861C60.6977 101.312 46.972 104.506 34.8292 99.9332C22.6865 95.3607 14.5567 83.937 14.2797 71.0581C14.0028 58.1791 21.6342 46.4221 33.5693 41.3403C45.5044 36.2584 59.355 38.8687 68.5788 47.9382M68.5428 42.3848C53.666 30.6768 32.1811 32.4283 19.4316 46.3886C6.68217 60.3488 7.04422 81.7262 20.2592 95.2539C33.4742 108.782 55.0063 109.817 69.4783 97.6196L68.5428 42.3848Z" stroke="#98CDF9" stroke-width="1.4" stroke-linecap="round" stroke-linejoin="round"/>
<path d="M51.5829 105.849L51.6099 113.419" stroke="#98CDF9" stroke-width="1.4" stroke-linecap="round" stroke-linejoin="round"/>
<path d="M40.7216 105.849V111.621" stroke="#98CDF9" stroke-width="1.4" stroke-linecap="round" stroke-linejoin="round"/>
<path d="M68.5248 48.8035L44.2206 38.8298" stroke="#98CDF9" stroke-width="1.4" stroke-linecap="round" stroke-linejoin="round"/>
<path d="M68.5384 52.6707L37.317 39.8601" stroke="#98CDF9" stroke-width="1.4" stroke-linecap="round" stroke-linejoin="round"/>
<path d="M68.5563 56.5381L32.3383 41.6756" stroke="#98CDF9" stroke-width="1.4" stroke-linecap="round" stroke-linejoin="round"/>
<path d="M69.4063 60.7488L28.3311 43.8969" stroke="#98CDF9" stroke-width="1.4" stroke-linecap="round" stroke-linejoin="round"/>
<path d="M69.3568 64.5893L25.0793 46.4216" stroke="#98CDF9" stroke-width="1.4" stroke-linecap="round" stroke-linejoin="round"/>
<path d="M69.3569 68.4521L22.192 49.0979" stroke="#98CDF9" stroke-width="1.4" stroke-linecap="round" stroke-linejoin="round"/>
<path d="M69.4108 72.3372L19.8353 51.9928" stroke="#98CDF9" stroke-width="1.4" stroke-linecap="round" stroke-linejoin="round"/>
<path d="M45.3135 66.3111L17.8925 55.0572" stroke="#98CDF9" stroke-width="1.4" stroke-linecap="round" stroke-linejoin="round"/>
<path d="M69.4062 76.1956L49.7614 68.1354" stroke="#98CDF9" stroke-width="1.4" stroke-linecap="round" stroke-linejoin="round"/>
<path d="M41.8009 68.7287L16.3273 58.2776" stroke="#98CDF9" stroke-width="1.4" stroke-linecap="round" stroke-linejoin="round"/>
<path d="M69.4783 80.0852L49.9594 72.0786" stroke="#98CDF9" stroke-width="1.4" stroke-linecap="round" stroke-linejoin="round"/>
<path d="M42.9523 73.0643L15.1445 61.6543" stroke="#98CDF9" stroke-width="1.4" stroke-linecap="round" stroke-linejoin="round"/>
<path d="M69.132 83.8053L46.6357 74.5764" stroke="#98CDF9" stroke-width="1.4" stroke-linecap="round" stroke-linejoin="round"/>
<path d="M69.3478 87.7573L14.3484 65.1915" stroke="#98CDF9" stroke-width="1.4" stroke-linecap="round" stroke-linejoin="round"/>
<path d="M69.015 91.4819L14.0336 68.925" stroke="#98CDF9" stroke-width="1.4" stroke-linecap="round" stroke-linejoin="round"/>
<path d="M66.42 94.2786L14.0336 72.7833" stroke="#98CDF9" stroke-width="1.4" stroke-linecap="round" stroke-linejoin="round"/>
<path d="M63.1054 96.7809L14.9916 77.0386" stroke="#98CDF9" stroke-width="1.4" stroke-linecap="round" stroke-linejoin="round"/>
<path d="M58.9273 98.9309L16.179 81.3876" stroke="#98CDF9" stroke-width="1.4" stroke-linecap="round" stroke-linejoin="round"/>
<path d="M53.9215 100.737L18.1398 86.0533" stroke="#98CDF9" stroke-width="1.4" stroke-linecap="round" stroke-linejoin="round"/>
<path d="M47.3508 101.902L22.201 91.5844" stroke="#98CDF9" stroke-width="1.4" stroke-linecap="round" stroke-linejoin="round"/>
<path fill-rule="evenodd" clip-rule="evenodd" d="M68.6238 48.0719C59.4478 38.9689 45.6159 36.3075 33.6734 41.347C21.7309 46.3866 14.0728 58.1163 14.323 70.9859C14.5731 83.8555 22.6812 95.2839 34.8107 99.8632C46.9402 104.443 60.6583 101.254 69.4738 91.8074C69.5251 91.7675 69.5692 91.7192 69.6043 91.6647C69.6043 91.0937 69.5773 89.8091 69.5773 89.8091C69.5773 89.8091 69.5773 77.7657 69.5773 70.3746V56.7521L68.6508 56.7254L68.6238 48.0719Z" stroke="#98CDF9" stroke-width="1.4" stroke-linecap="round" stroke-linejoin="round"/>
<path d="M46.141 74.5274C48.451 74.5274 50.3236 72.6701 50.3236 70.3791C50.3236 68.088 48.451 66.2308 46.141 66.2308C43.831 66.2308 41.9584 68.088 41.9584 70.3791C41.9584 72.6701 43.831 74.5274 46.141 74.5274Z" stroke="#98CDF9" stroke-width="1.4" stroke-linecap="round" stroke-linejoin="round"/>
<path d="M69.5009 111.496L69.5818 56.7566H91.0257V111.621" stroke="#308CF9" stroke-width="1.4" stroke-linecap="round" stroke-linejoin="round"/>
<path fill-rule="evenodd" clip-rule="evenodd" d="M68.6553 38.0268H91.8487V53.1926H68.6553V38.0268Z" stroke="#308CF9" stroke-width="1.4" stroke-linecap="round" stroke-linejoin="round"/>
<path d="M88.7769 34.0079H71.6865V38.0224H88.7769V34.0079Z" stroke="#308CF9" stroke-width="1.4" stroke-linecap="round" stroke-linejoin="round"/>
<path fill-rule="evenodd" clip-rule="evenodd" d="M91.8532 56.7566H68.6553V53.1882H91.8487L91.8532 56.7566Z" stroke="#308CF9" stroke-width="1.4" stroke-linecap="round" stroke-linejoin="round"/>
<path d="M85.3544 17.95H75.0103V24.1948H85.3544V17.95Z" stroke="#308CF9" stroke-width="1.4" stroke-linecap="round" stroke-linejoin="round"/>
<path fill-rule="evenodd" clip-rule="evenodd" d="M88.7769 34.0079H71.6865L75.0416 24.1948H85.3633L88.7769 34.0079Z" stroke="#308CF9" stroke-width="1.4" stroke-linecap="round" stroke-linejoin="round"/>
<path fill-rule="evenodd" clip-rule="evenodd" d="M80.1643 5.67014L75.0103 17.9455L85.3544 17.95L80.1643 5.67014Z" stroke="#308CF9" stroke-width="1.4" stroke-linecap="round" stroke-linejoin="round"/>
<path d="M80.1643 1V5.90658" stroke="#308CF9" stroke-width="1.4" stroke-linecap="round" stroke-linejoin="round"/>
<path d="M76.6338 60.325V66.5698" stroke="#308CF9" stroke-width="1.4" stroke-linecap="round" stroke-linejoin="round"/>
<path d="M83.8297 60.325V66.5698" stroke="#308CF9" stroke-width="1.4" stroke-linecap="round" stroke-linejoin="round"/>
<path d="M76.6338 75.9369V82.1817" stroke="#308CF9" stroke-width="1.4" stroke-linecap="round" stroke-linejoin="round"/>
<path d="M83.8297 75.9369V82.1817" stroke="#308CF9" stroke-width="1.4" stroke-linecap="round" stroke-linejoin="round"/>
<path d="M76.6338 91.1027V97.7935" stroke="#308CF9" stroke-width="1.4" stroke-linecap="round" stroke-linejoin="round"/>
<path d="M83.8297 91.1027V97.7935" stroke="#308CF9" stroke-width="1.4" stroke-linecap="round" stroke-linejoin="round"/>
<path d="M68.6553 34.454V38.0224" stroke="#308CF9" stroke-width="1.4" stroke-linecap="round" stroke-linejoin="round"/>
<path d="M91.8486 34.454V38.0224" stroke="#308CF9" stroke-width="1.4" stroke-linecap="round" stroke-linejoin="round"/>
<path d="M80.4071 50.6234C83.194 50.6234 85.4533 48.3827 85.4533 45.6187C85.4533 42.8546 83.194 40.614 80.4071 40.614C77.6202 40.614 75.361 42.8546 75.361 45.6187C75.361 48.3827 77.6202 50.6234 80.4071 50.6234Z" stroke="#308CF9" stroke-width="1.4" stroke-linecap="round" stroke-linejoin="round"/>
<path d="M80.2317 41.1448V46.0514H85.1789" stroke="#308CF9" stroke-width="1.4" stroke-linecap="round" stroke-linejoin="round"/>
<path d="M69.6133 69.6922H92.8247" stroke="#308CF9" stroke-width="1.4" stroke-linecap="round" stroke-linejoin="round"/>
<path d="M69.8876 73.2606H92.8246" stroke="#308CF9" stroke-width="1.4" stroke-linecap="round" stroke-linejoin="round"/>
<path d="M69.5233 84.8579H92.8246" stroke="#308CF9" stroke-width="1.4" stroke-linecap="round" stroke-linejoin="round"/>
<path d="M69.5233 88.4264H92.8246" stroke="#308CF9" stroke-width="1.4" stroke-linecap="round" stroke-linejoin="round"/>
<path d="M69.8876 100.47H92.8246" stroke="#308CF9" stroke-width="1.4" stroke-linecap="round" stroke-linejoin="round"/>
<path d="M69.8876 104.038H92.8246" stroke="#308CF9" stroke-width="1.4" stroke-linecap="round" stroke-linejoin="round"/>
<path d="M4.61145 111.496C5.3684 112.76 6.74081 113.535 8.22291 113.535C9.70501 113.535 11.0774 112.76 11.8344 111.496" stroke="#308CF9" stroke-width="1.4" stroke-linecap="round" stroke-linejoin="round"/>
<path d="M11.8298 111.496C12.5868 112.76 13.9592 113.535 15.4413 113.535C16.9234 113.535 18.2958 112.76 19.0528 111.496" stroke="#308CF9" stroke-width="1.4" stroke-linecap="round" stroke-linejoin="round"/>
<path d="M19.0529 111.496C19.8098 112.76 21.1822 113.535 22.6643 113.535C24.1464 113.535 25.5188 112.76 26.2758 111.496" stroke="#308CF9" stroke-width="1.4" stroke-linecap="round" stroke-linejoin="round"/>
<path d="M26.2756 111.496C27.0326 112.76 28.405 113.535 29.8871 113.535C31.3692 113.535 32.7416 112.76 33.4986 111.496" stroke="#308CF9" stroke-width="1.4" stroke-linecap="round" stroke-linejoin="round"/>
<path d="M33.4987 111.496C34.2556 112.76 35.628 113.535 37.1101 113.535C38.5922 113.535 39.9646 112.76 40.7216 111.496" stroke="#308CF9" stroke-width="1.4" stroke-linecap="round" stroke-linejoin="round"/>
<path d="M40.717 111.496C41.474 112.76 42.8464 113.535 44.3285 113.535C45.8106 113.535 47.183 112.76 47.94 111.496" stroke="#308CF9" stroke-width="1.4" stroke-linecap="round" stroke-linejoin="round"/>
<path d="M1 113.53C2.47869 113.548 3.85301 112.777 4.59797 111.51" stroke="#308CF9" stroke-width="1.4" stroke-linecap="round" stroke-linejoin="round"/>
<path d="M47.9399 111.496C48.6969 112.76 50.0693 113.535 51.5514 113.535C53.0335 113.535 54.4059 112.76 55.1629 111.496" stroke="#308CF9" stroke-width="1.4" stroke-linecap="round" stroke-linejoin="round"/>
<path d="M55.163 111.496C55.9199 112.76 57.2923 113.535 58.7744 113.535C60.2565 113.535 61.6289 112.76 62.3859 111.496" stroke="#308CF9" stroke-width="1.4" stroke-linecap="round" stroke-linejoin="round"/>
<path d="M62.3857 111.496C63.1427 112.76 64.5151 113.535 65.9972 113.535C67.4793 113.535 68.8517 112.76 69.6087 111.496" stroke="#308CF9" stroke-width="1.4" stroke-linecap="round" stroke-linejoin="round"/>
<path d="M69.5413 111.496C70.2982 112.76 71.6706 113.535 73.1527 113.535C74.6348 113.535 76.0072 112.76 76.7642 111.496" stroke="#308CF9" stroke-width="1.4" stroke-linecap="round" stroke-linejoin="round"/>
<path d="M76.7642 111.496C77.5211 112.76 78.8935 113.535 80.3756 113.535C81.8577 113.535 83.2301 112.76 83.9871 111.496" stroke="#308CF9" stroke-width="1.4" stroke-linecap="round" stroke-linejoin="round"/>
<path d="M83.9825 111.496C84.7395 112.76 86.1119 113.535 87.594 113.535C89.0761 113.535 90.4485 112.76 91.2055 111.496" stroke="#308CF9" stroke-width="1.4" stroke-linecap="round" stroke-linejoin="round"/>
<path d="M91.2325 111.496C91.9895 112.76 93.3619 113.535 94.844 113.535C96.3261 113.535 97.6985 112.76 98.4555 111.496" stroke="#308CF9" stroke-width="1.4" stroke-linecap="round" stroke-linejoin="round"/>
<path d="M98.4509 111.496C99.2079 112.76 100.58 113.535 102.062 113.535C103.544 113.535 104.917 112.76 105.674 111.496" stroke="#308CF9" stroke-width="1.4" stroke-linecap="round" stroke-linejoin="round"/>
<path d="M109.285 113.521C107.807 113.539 106.432 112.768 105.687 111.501" stroke="#308CF9" stroke-width="1.4" stroke-linecap="round" stroke-linejoin="round"/>
<path d="M11.3486 115.961C12.1056 117.225 13.478 118 14.9601 118C16.4422 118 17.8146 117.225 18.5715 115.961" stroke="#308CF9" stroke-width="1.4" stroke-linecap="round" stroke-linejoin="round"/>
<path d="M18.5715 115.961C19.3285 117.225 20.7009 118 22.183 118C23.6651 118 25.0375 117.225 25.7945 115.961" stroke="#308CF9" stroke-width="1.4" stroke-linecap="round" stroke-linejoin="round"/>
<path d="M25.7944 115.961C26.5514 117.225 27.9238 118 29.4059 118C30.888 118 32.2604 117.225 33.0174 115.961" stroke="#308CF9" stroke-width="1.4" stroke-linecap="round" stroke-linejoin="round"/>
<path d="M33.0173 115.961C33.7743 117.225 35.1467 118 36.6288 118C38.1109 118 39.4833 117.225 40.2403 115.961" stroke="#308CF9" stroke-width="1.4" stroke-linecap="round" stroke-linejoin="round"/>
<path d="M40.2358 115.961C40.9928 117.225 42.3652 118 43.8473 118C45.3294 118 46.7018 117.225 47.4588 115.961" stroke="#308CF9" stroke-width="1.4" stroke-linecap="round" stroke-linejoin="round"/>
<path d="M47.4587 115.961C48.2157 117.225 49.5881 118 51.0702 118C52.5523 118 53.9247 117.225 54.6817 115.961" stroke="#308CF9" stroke-width="1.4" stroke-linecap="round" stroke-linejoin="round"/>
<path d="M54.6816 115.961C55.4386 117.225 56.811 118 58.2931 118C59.7752 118 61.1476 117.225 61.9046 115.961" stroke="#308CF9" stroke-width="1.4" stroke-linecap="round" stroke-linejoin="round"/>
<path d="M61.9001 115.961C62.6571 117.225 64.0295 118 65.5116 118C66.9937 118 68.3661 117.225 69.1231 115.961" stroke="#308CF9" stroke-width="1.4" stroke-linecap="round" stroke-linejoin="round"/>
<path d="M7.7417 118C9.22039 118.018 10.5947 117.246 11.3397 115.979" stroke="#308CF9" stroke-width="1.4" stroke-linecap="round" stroke-linejoin="round"/>
<path d="M69.1229 115.961C69.8799 117.225 71.2523 118 72.7344 118C74.2165 118 75.5889 117.225 76.3458 115.961" stroke="#308CF9" stroke-width="1.4" stroke-linecap="round" stroke-linejoin="round"/>
<path d="M76.3459 115.961C77.1029 117.225 78.4753 118 79.9574 118C81.4395 118 82.8119 117.225 83.5689 115.961" stroke="#308CF9" stroke-width="1.4" stroke-linecap="round" stroke-linejoin="round"/>
<path d="M83.5688 115.961C84.3258 117.225 85.6982 118 87.1803 118C88.6624 118 90.0348 117.225 90.7918 115.961" stroke="#308CF9" stroke-width="1.4" stroke-linecap="round" stroke-linejoin="round"/>
<path d="M90.7242 115.961C91.4812 117.225 92.8536 118 94.3357 118C95.8178 118 97.1902 117.225 97.9472 115.961" stroke="#308CF9" stroke-width="1.4" stroke-linecap="round" stroke-linejoin="round"/>
<path d="M97.9473 115.961C98.7042 117.225 100.077 118 101.559 118C103.041 118 104.413 117.225 105.17 115.961" stroke="#308CF9" stroke-width="1.4" stroke-linecap="round" stroke-linejoin="round"/>
<path d="M105.17 115.961C105.927 117.225 107.3 118 108.782 118C110.264 118 111.636 117.225 112.393 115.961" stroke="#308CF9" stroke-width="1.4" stroke-linecap="round" stroke-linejoin="round"/>
<path d="M116 117.991C114.521 118.009 113.147 117.237 112.402 115.97" stroke="#308CF9" stroke-width="1.4" stroke-linecap="round" stroke-linejoin="round"/>
</svg>
