<svg width="117" height="113" viewBox="0 0 117 113" fill="none" xmlns="http://www.w3.org/2000/svg">
<path d="M48.8648 83.2144C37.6623 82.474 28.1561 77.8731 23.3693 71.4311" stroke="#98CDF9" stroke-width="1.4" stroke-linecap="round" stroke-linejoin="round"/>
<path d="M80.6526 71.4349C77.6971 75.3944 72.9778 78.653 67.1819 80.7555" stroke="#98CDF9" stroke-width="1.4" stroke-linecap="round" stroke-linejoin="round"/>
<path d="M80.6885 71.4349C85.9242 78.4788 96.8009 83.3133 109.37 83.3133C111.588 83.311 113.803 83.1575 116 82.854" stroke="#98CDF9" stroke-width="1.4" stroke-linecap="round" stroke-linejoin="round"/>
<path d="M45.6709 82.961V92.8596" stroke="#98CDF9" stroke-width="1.4" stroke-linecap="round" stroke-linejoin="round"/>
<path d="M42.4927 82.565V106.322" stroke="#98CDF9" stroke-width="1.4" stroke-linecap="round" stroke-linejoin="round"/>
<path d="M39.3148 81.7731V107.906" stroke="#98CDF9" stroke-width="1.4" stroke-linecap="round" stroke-linejoin="round"/>
<path d="M36.1368 80.5853V106.322" stroke="#98CDF9" stroke-width="1.4" stroke-linecap="round" stroke-linejoin="round"/>
<path d="M32.9587 79.3975V107.51" stroke="#98CDF9" stroke-width="1.4" stroke-linecap="round" stroke-linejoin="round"/>
<path d="M29.7808 77.4178V106.322" stroke="#98CDF9" stroke-width="1.4" stroke-linecap="round" stroke-linejoin="round"/>
<path d="M26.6028 75.042V107.51" stroke="#98CDF9" stroke-width="1.4" stroke-linecap="round" stroke-linejoin="round"/>
<path d="M23.4248 71.8745V106.718" stroke="#98CDF9" stroke-width="1.4" stroke-linecap="round" stroke-linejoin="round"/>
<path d="M102.875 82.961V107.906" stroke="#98CDF9" stroke-width="1.4" stroke-linecap="round" stroke-linejoin="round"/>
<path d="M99.6969 82.565V106.322" stroke="#98CDF9" stroke-width="1.4" stroke-linecap="round" stroke-linejoin="round"/>
<path d="M96.5189 81.7731V107.906" stroke="#98CDF9" stroke-width="1.4" stroke-linecap="round" stroke-linejoin="round"/>
<path d="M93.3408 80.5853V106.322" stroke="#98CDF9" stroke-width="1.4" stroke-linecap="round" stroke-linejoin="round"/>
<path d="M90.1628 79.1242V107.51" stroke="#98CDF9" stroke-width="1.4" stroke-linecap="round" stroke-linejoin="round"/>
<path d="M86.9849 77.4178V106.322" stroke="#98CDF9" stroke-width="1.4" stroke-linecap="round" stroke-linejoin="round"/>
<path d="M83.8069 75.042V107.51" stroke="#98CDF9" stroke-width="1.4" stroke-linecap="round" stroke-linejoin="round"/>
<path d="M80.6289 71.4785V106.322" stroke="#98CDF9" stroke-width="1.4" stroke-linecap="round" stroke-linejoin="round"/>
<path d="M23.3654 71.4785C19.1068 77.5325 10.9275 81.9474 1.19482 83.0441" stroke="#98CDF9" stroke-width="1.4" stroke-linecap="round" stroke-linejoin="round"/>
<path d="M80.6884 68.3268C81.1272 68.3268 81.4829 67.9723 81.4829 67.5349C81.4829 67.0976 81.1272 66.743 80.6884 66.743C80.2496 66.743 79.8939 67.0976 79.8939 67.5349C79.8939 67.9723 80.2496 68.3268 80.6884 68.3268Z" fill="#98CDF9"/>
<path d="M23.3255 68.2951C23.7643 68.2951 24.12 67.9405 24.12 67.5032C24.12 67.0658 23.7643 66.7113 23.3255 66.7113C22.8867 66.7113 22.531 67.0658 22.531 67.5032C22.531 67.9405 22.8867 68.2951 23.3255 68.2951Z" fill="#98CDF9"/>
<path d="M4.18982 106.227C4.84417 107.357 6.05905 108.047 7.36782 108.032C8.67743 108.046 9.8925 107.354 10.5458 106.223" stroke="#308CF9" stroke-width="1.4" stroke-linecap="round" stroke-linejoin="round"/>
<path d="M10.5698 106.227C11.2384 107.349 12.4506 108.036 13.7597 108.036C15.0688 108.036 16.2811 107.349 16.9497 106.227" stroke="#308CF9" stroke-width="1.4" stroke-linecap="round" stroke-linejoin="round"/>
<path d="M16.9456 106.227C17.6142 107.349 18.8264 108.036 20.1355 108.036C21.4446 108.036 22.6568 107.349 23.3254 106.227" stroke="#308CF9" stroke-width="1.4" stroke-linecap="round" stroke-linejoin="round"/>
<path d="M23.3254 106.227C23.994 107.349 25.2063 108.036 26.5154 108.036C27.8245 108.036 29.0367 107.349 29.7053 106.227" stroke="#308CF9" stroke-width="1.4" stroke-linecap="round" stroke-linejoin="round"/>
<path d="M29.7053 106.227C30.3739 107.349 31.5861 108.036 32.8952 108.036C34.2043 108.036 35.4166 107.349 36.0852 106.227" stroke="#308CF9" stroke-width="1.4" stroke-linecap="round" stroke-linejoin="round"/>
<path d="M36.0812 106.227C36.7498 107.349 37.962 108.036 39.2711 108.036C40.5802 108.036 41.7924 107.349 42.461 106.227" stroke="#308CF9" stroke-width="1.4" stroke-linecap="round" stroke-linejoin="round"/>
<path d="M42.4611 106.227C43.1297 107.349 44.3419 108.036 45.651 108.036C46.9601 108.036 48.1723 107.349 48.8409 106.227" stroke="#308CF9" stroke-width="1.4" stroke-linecap="round" stroke-linejoin="round"/>
<path d="M48.8408 106.227C49.5094 107.349 50.7216 108.036 52.0307 108.036C53.3398 108.036 54.5521 107.349 55.2207 106.227" stroke="#308CF9" stroke-width="1.4" stroke-linecap="round" stroke-linejoin="round"/>
<path d="M1 108.032C2.30609 108.048 3.52 107.363 4.178 106.239" stroke="#308CF9" stroke-width="1.4" stroke-linecap="round" stroke-linejoin="round"/>
<path d="M55.2207 106.227C55.8893 107.349 57.1015 108.036 58.4106 108.036C59.7197 108.036 60.9319 107.349 61.6005 106.227" stroke="#308CF9" stroke-width="1.4" stroke-linecap="round" stroke-linejoin="round"/>
<path d="M61.5966 106.227C62.2652 107.349 63.4774 108.036 64.7865 108.036C66.0956 108.036 67.3078 107.349 67.9764 106.227" stroke="#308CF9" stroke-width="1.4" stroke-linecap="round" stroke-linejoin="round"/>
<path d="M67.9764 106.227C68.645 107.349 69.8573 108.036 71.1664 108.036C72.4755 108.036 73.6877 107.349 74.3563 106.227" stroke="#308CF9" stroke-width="1.4" stroke-linecap="round" stroke-linejoin="round"/>
<path d="M74.3008 106.227C74.9694 107.349 76.1816 108.036 77.4907 108.036C78.7998 108.036 80.012 107.349 80.6806 106.227" stroke="#308CF9" stroke-width="1.4" stroke-linecap="round" stroke-linejoin="round"/>
<path d="M80.6765 106.227C81.3451 107.349 82.5573 108.036 83.8664 108.036C85.1755 108.036 86.3878 107.349 87.0564 106.227" stroke="#308CF9" stroke-width="1.4" stroke-linecap="round" stroke-linejoin="round"/>
<path d="M87.0564 106.227C87.725 107.349 88.9372 108.036 90.2463 108.036C91.5554 108.036 92.7676 107.349 93.4362 106.227" stroke="#308CF9" stroke-width="1.4" stroke-linecap="round" stroke-linejoin="round"/>
<path d="M93.4402 106.227C94.1088 107.349 95.321 108.036 96.6301 108.036C97.9392 108.036 99.1514 107.349 99.82 106.227" stroke="#308CF9" stroke-width="1.4" stroke-linecap="round" stroke-linejoin="round"/>
<path d="M99.8359 106.227C100.505 107.349 101.717 108.036 103.026 108.036C104.335 108.036 105.547 107.349 106.216 106.227" stroke="#308CF9" stroke-width="1.4" stroke-linecap="round" stroke-linejoin="round"/>
<path d="M106.216 106.227C106.884 107.349 108.097 108.036 109.406 108.036C110.715 108.036 111.927 107.349 112.596 106.227" stroke="#308CF9" stroke-width="1.4" stroke-linecap="round" stroke-linejoin="round"/>
<path d="M115.782 108.024C114.476 108.041 113.262 107.355 112.604 106.231" stroke="#308CF9" stroke-width="1.4" stroke-linecap="round" stroke-linejoin="round"/>
<path fill-rule="evenodd" clip-rule="evenodd" d="M71.2935 53.9855L70.1494 51.9306L72.6998 48.1017L75.2263 47.9156C75.3693 50.8615 73.5459 53.9855 71.2935 53.9855Z" stroke="#308CF9" stroke-width="1.4" stroke-linecap="round" stroke-linejoin="round"/>
<path d="M61.7157 26.487L63.6623 24.5073C63.6623 24.5073 62.693 19.7559 57.9855 19.7559C53.2781 19.7559 52.3088 24.5073 52.3088 24.5073L54.16 26.487" stroke="#308CF9" stroke-width="1.4" stroke-linecap="round" stroke-linejoin="round"/>
<path d="M52.3844 24.4756L50.6326 24.0361" stroke="#308CF9" stroke-width="1.4" stroke-linecap="round" stroke-linejoin="round"/>
<path d="M54.3905 20.932L51.4429 18.7265" stroke="#308CF9" stroke-width="1.4" stroke-linecap="round" stroke-linejoin="round"/>
<path d="M63.7935 24.4756L67.2932 23.5927" stroke="#308CF9" stroke-width="1.4" stroke-linecap="round" stroke-linejoin="round"/>
<path d="M61.7832 20.932L64.7308 18.7265" stroke="#308CF9" stroke-width="1.4" stroke-linecap="round" stroke-linejoin="round"/>
<path d="M57.9856 15.254V19.6094" stroke="#308CF9" stroke-width="1.4" stroke-linecap="round" stroke-linejoin="round"/>
<path fill-rule="evenodd" clip-rule="evenodd" d="M61.7754 25.8931C61.8392 24.5081 61.1341 23.2002 59.9402 22.4887C58.7463 21.7772 57.2567 21.7772 56.0628 22.4887C54.8689 23.2002 54.1638 24.5081 54.2276 25.8931V34.6554H61.7754V25.9446C61.7754 25.9446 61.7754 25.909 61.7754 25.8931Z" stroke="#308CF9" stroke-width="1.4" stroke-linecap="round" stroke-linejoin="round"/>
<path d="M54.2275 28.0392C55.0737 29.6705 56.5673 31.8403 58.0213 32.1096C59.6103 31.7136 61.1397 29.5042 61.7753 28.0194" stroke="#308CF9" stroke-width="1.4" stroke-linecap="round" stroke-linejoin="round"/>
<path fill-rule="evenodd" clip-rule="evenodd" d="M45.6709 92.8596H70.6977V96.0272H45.6709V92.8596Z" stroke="#308CF9" stroke-width="1.4" stroke-linecap="round" stroke-linejoin="round"/>
<path d="M67.1224 76.2299V92.8596" stroke="#308CF9" stroke-width="1.4" stroke-linecap="round" stroke-linejoin="round"/>
<path d="M48.8489 80.3002V92.8597" stroke="#308CF9" stroke-width="1.4" stroke-linecap="round" stroke-linejoin="round"/>
<path d="M70.6975 100.553V107.906" stroke="#308CF9" stroke-width="1.4" stroke-linecap="round" stroke-linejoin="round"/>
<path d="M45.6709 96.0272L45.6868 92.8596H70.7017V96.0272" stroke="#308CF9" stroke-width="1.4" stroke-linecap="round" stroke-linejoin="round"/>
<path d="M45.651 108.032L45.6669 100.493" stroke="#308CF9" stroke-width="1.4" stroke-linecap="round" stroke-linejoin="round"/>
<path d="M73.7086 96.0272H42.4927V100.383H73.7086V96.0272Z" stroke="#308CF9" stroke-width="1.4" stroke-linecap="round" stroke-linejoin="round"/>
<path d="M55.2048 100.779V106.718" stroke="#308CF9" stroke-width="1.4" stroke-linecap="round" stroke-linejoin="round"/>
<path d="M61.5608 100.779V106.718" stroke="#308CF9" stroke-width="1.4" stroke-linecap="round" stroke-linejoin="round"/>
<path fill-rule="evenodd" clip-rule="evenodd" d="M67.1264 75.9645L57.6678 79.2984L61.7635 34.6673L67.1264 37.922V75.9645Z" stroke="#308CF9" stroke-width="1.4" stroke-linecap="round" stroke-linejoin="round"/>
<path d="M76.0287 43.192L76.6563 45.8884L75.1468 48.1414L72.6123 48.2325" stroke="#308CF9" stroke-width="1.4" stroke-linecap="round" stroke-linejoin="round"/>
<path fill-rule="evenodd" clip-rule="evenodd" d="M67.1262 56.0366V59.9644L67.1659 60.0435L71.2894 53.9856L70.1374 51.9306L67.1262 56.0366Z" stroke="#308CF9" stroke-width="1.4" stroke-linecap="round" stroke-linejoin="round"/>
<path fill-rule="evenodd" clip-rule="evenodd" d="M61.0324 42.7169C56.623 50.6358 52.0824 57.5688 47.3114 62.8785L48.8607 80.4902C52.5233 75.6557 56.0986 67.1586 59.6262 58.04L61.0324 42.7169Z" stroke="#308CF9" stroke-width="1.4" stroke-linecap="round" stroke-linejoin="round"/>
<path fill-rule="evenodd" clip-rule="evenodd" d="M61.3979 38.7574C56.6984 46.1023 51.9394 51.891 48.094 57.1254L48.3165 61.5679C52.7259 56.4206 56.9487 49.8717 61.0523 42.5031L61.3979 38.7574Z" stroke="#308CF9" stroke-width="1.4" stroke-linecap="round" stroke-linejoin="round"/>
<path fill-rule="evenodd" clip-rule="evenodd" d="M52.8015 34.6554C52.3122 38.3483 51.4197 41.9769 50.1399 45.4766C48.2093 50.03 46.088 43.3227 45.0511 33.8952C48.8091 32.0382 51.1609 28.5855 51.3317 27.3502L52.8015 34.6554Z" stroke="#308CF9" stroke-width="1.4" stroke-linecap="round" stroke-linejoin="round"/>
<path d="M58.0849 22.2624C57.8188 24.5826 56.4959 25.8496 54.4421 26.3089" stroke="#308CF9" stroke-width="1.4" stroke-linecap="round" stroke-linejoin="round"/>
<path d="M58.085 22.2624C58.3511 24.5826 59.6104 25.8496 61.6602 26.3089" stroke="#308CF9" stroke-width="1.4" stroke-linecap="round" stroke-linejoin="round"/>
<path fill-rule="evenodd" clip-rule="evenodd" d="M49.6592 9.31494H43.3032H49.6592Z" stroke="#308CF9" stroke-width="1.4" stroke-linecap="round" stroke-linejoin="round"/>
<path fill-rule="evenodd" clip-rule="evenodd" d="M50.8589 6.14731H42.1194H50.8589Z" stroke="#308CF9" stroke-width="1.4" stroke-linecap="round" stroke-linejoin="round"/>
<path fill-rule="evenodd" clip-rule="evenodd" d="M44.6737 9.31494H48.4674L48.3045 13.2744L46.1673 15.4323C44.2565 14.3157 43.8235 12.0866 44.6737 9.31494Z" stroke="#308CF9" stroke-width="1.4" stroke-linecap="round" stroke-linejoin="round"/>
<path fill-rule="evenodd" clip-rule="evenodd" d="M48.3046 13.2624L46.1674 15.4322L47.3591 32.4381C49.3454 30.787 50.3147 30.0624 51.3316 27.3383L48.3046 13.2624Z" stroke="#308CF9" stroke-width="1.4" stroke-linecap="round" stroke-linejoin="round"/>
<path d="M4.18982 110.19C4.84417 111.32 6.05905 112.01 7.36782 111.996C8.67743 112.009 9.8925 111.318 10.5458 110.186" stroke="#308CF9" stroke-width="1.4" stroke-linecap="round" stroke-linejoin="round"/>
<path d="M10.5698 110.19C11.2384 111.312 12.4506 112 13.7597 112C15.0688 112 16.2811 111.312 16.9497 110.19" stroke="#308CF9" stroke-width="1.4" stroke-linecap="round" stroke-linejoin="round"/>
<path d="M16.9456 110.19C17.6142 111.312 18.8264 112 20.1355 112C21.4446 112 22.6568 111.312 23.3254 110.19" stroke="#308CF9" stroke-width="1.4" stroke-linecap="round" stroke-linejoin="round"/>
<path d="M23.3254 110.19C23.994 111.312 25.2063 112 26.5154 112C27.8245 112 29.0367 111.312 29.7053 110.19" stroke="#308CF9" stroke-width="1.4" stroke-linecap="round" stroke-linejoin="round"/>
<path d="M29.7053 110.19C30.3739 111.312 31.5861 112 32.8952 112C34.2043 112 35.4166 111.312 36.0852 110.19" stroke="#308CF9" stroke-width="1.4" stroke-linecap="round" stroke-linejoin="round"/>
<path d="M36.0812 110.19C36.7498 111.312 37.962 112 39.2711 112C40.5802 112 41.7924 111.312 42.461 110.19" stroke="#308CF9" stroke-width="1.4" stroke-linecap="round" stroke-linejoin="round"/>
<path d="M42.4611 110.19C43.1297 111.312 44.3419 112 45.651 112C46.9601 112 48.1723 111.312 48.8409 110.19" stroke="#308CF9" stroke-width="1.4" stroke-linecap="round" stroke-linejoin="round"/>
<path d="M48.8408 110.19C49.5094 111.312 50.7216 112 52.0307 112C53.3398 112 54.5521 111.312 55.2207 110.19" stroke="#308CF9" stroke-width="1.4" stroke-linecap="round" stroke-linejoin="round"/>
<path d="M1 112C2.30609 112.016 3.52 111.331 4.178 110.206" stroke="#308CF9" stroke-width="1.4" stroke-linecap="round" stroke-linejoin="round"/>
<path d="M55.2207 110.19C55.8893 111.312 57.1015 112 58.4106 112C59.7197 112 60.9319 111.312 61.6005 110.19" stroke="#308CF9" stroke-width="1.4" stroke-linecap="round" stroke-linejoin="round"/>
<path d="M61.5966 110.19C62.2652 111.312 63.4774 112 64.7865 112C66.0956 112 67.3078 111.312 67.9764 110.19" stroke="#308CF9" stroke-width="1.4" stroke-linecap="round" stroke-linejoin="round"/>
<path d="M67.9764 110.19C68.645 111.312 69.8573 112 71.1664 112C72.4755 112 73.6877 111.312 74.3563 110.19" stroke="#308CF9" stroke-width="1.4" stroke-linecap="round" stroke-linejoin="round"/>
<path d="M74.3008 110.19C74.9694 111.312 76.1816 112 77.4907 112C78.7998 112 80.012 111.312 80.6806 110.19" stroke="#308CF9" stroke-width="1.4" stroke-linecap="round" stroke-linejoin="round"/>
<path d="M80.6765 110.19C81.3451 111.312 82.5573 112 83.8664 112C85.1755 112 86.3878 111.312 87.0564 110.19" stroke="#308CF9" stroke-width="1.4" stroke-linecap="round" stroke-linejoin="round"/>
<path d="M87.0564 110.19C87.725 111.312 88.9372 112 90.2463 112C91.5554 112 92.7676 111.312 93.4362 110.19" stroke="#308CF9" stroke-width="1.4" stroke-linecap="round" stroke-linejoin="round"/>
<path d="M93.4402 110.19C94.1088 111.312 95.321 112 96.6301 112C97.9392 112 99.1514 111.312 99.82 110.19" stroke="#308CF9" stroke-width="1.4" stroke-linecap="round" stroke-linejoin="round"/>
<path d="M99.8359 110.19C100.505 111.312 101.717 112 103.026 112C104.335 112 105.547 111.312 106.216 110.19" stroke="#308CF9" stroke-width="1.4" stroke-linecap="round" stroke-linejoin="round"/>
<path d="M106.216 110.19C106.884 111.312 108.097 112 109.406 112C110.715 112 111.927 111.312 112.596 110.19" stroke="#308CF9" stroke-width="1.4" stroke-linecap="round" stroke-linejoin="round"/>
<path d="M115.782 111.992C114.476 112.008 113.262 111.323 112.604 110.198" stroke="#308CF9" stroke-width="1.4" stroke-linecap="round" stroke-linejoin="round"/>
<path d="M46.4892 6.0998C47.9021 6.0998 49.0475 4.95817 49.0475 3.5499C49.0475 2.14163 47.9021 1 46.4892 1C45.0763 1 43.9309 2.14163 43.9309 3.5499C43.9309 4.95817 45.0763 6.0998 46.4892 6.0998Z" stroke="#308CF9" stroke-width="1.4" stroke-linecap="round" stroke-linejoin="round"/>
<path d="M49.0157 90.0127L59.519 85.3287L59.4435 78.6689L67.1184 75.9646V37.922L61.7675 34.6554H52.8015C52.3124 38.3484 51.4199 41.977 50.1399 45.4767C49.7188 46.4665 49.2541 46.9258 48.8568 46.9377V56.0445" stroke="#308CF9" stroke-width="1.4" stroke-linecap="round" stroke-linejoin="round"/>
<path fill-rule="evenodd" clip-rule="evenodd" d="M67.1262 56.4524L76.0207 43.101L70.5068 39.8345L67.1262 44.4987V56.4524Z" stroke="#308CF9" stroke-width="1.4" stroke-linecap="round" stroke-linejoin="round"/>
</svg>
