<svg width="132" height="126" viewBox="0 0 132 126" fill="none" xmlns="http://www.w3.org/2000/svg">
<path d="M74.9419 124.422H129.817" stroke="white" stroke-width="1.5" stroke-linecap="round" stroke-linejoin="round"/>
<path d="M1 124.422H56.3401" stroke="white" stroke-width="1.5" stroke-linecap="round" stroke-linejoin="round"/>
<path opacity="0.5" d="M130.375 120.423C129.491 119.028 127.957 118.191 126.283 118.144V118.098C126.283 115.168 121.493 112.75 115.587 112.75C114.889 112.75 114.145 112.796 113.447 112.843C113.354 107.169 108.053 102.565 101.449 102.565C98.6126 102.565 95.8688 103.495 93.5901 105.17" stroke="white" stroke-width="1.5" stroke-linecap="round" stroke-linejoin="round"/>
<path opacity="0.5" d="M51.9222 87.8235C40.5752 86.847 26.6239 94.2411 21.2294 103.775C13.1376 101.775 8.39421 108.937 8.85925 113.122C3.65077 113.215 1.37206 116.796 1.23254 120.377" stroke="white" stroke-width="1.5" stroke-linecap="round" stroke-linejoin="round"/>
<path d="M75.3138 77.2671C76.9415 83.4522 79.0807 89.4977 81.6849 95.3108" stroke="white" stroke-width="1.5" stroke-linecap="round" stroke-linejoin="round"/>
<path d="M66.5245 13.1842C68.2452 39.5986 70.7099 58.5724 74.3373 73.4538" stroke="white" stroke-width="1.5" stroke-linecap="round" stroke-linejoin="round"/>
<path d="M47.3184 99.1706C42.8074 108.146 37.2734 115.959 30.7628 124.422H45.8767" stroke="white" stroke-width="1.5" stroke-linecap="round" stroke-linejoin="round"/>
<path d="M55.5496 77.2671C53.8754 83.4057 51.7827 89.4512 49.1785 95.2643" stroke="white" stroke-width="1.5" stroke-linecap="round" stroke-linejoin="round"/>
<path d="M64.4319 13.1842C62.7112 39.6451 60.2 58.6189 56.4796 73.5468" stroke="white" stroke-width="1.5" stroke-linecap="round" stroke-linejoin="round"/>
<path d="M45.8302 124.422C45.8302 113.726 54.852 105.03 65.548 105.03C76.244 105.03 85.1728 113.726 85.1728 124.422" stroke="white" stroke-width="1.5" stroke-linecap="round" stroke-linejoin="round"/>
<path opacity="0.5" d="M116.424 120.423C115.168 118.284 112.657 117.261 110.285 117.912C110.192 113.959 106.286 110.75 101.496 110.75C100.705 110.75 99.9147 110.843 99.1706 111.029C98.1475 107.355 94.5202 104.612 90.2418 104.612C89.1722 104.565 88.0561 104.751 87.033 105.077" stroke="white" stroke-width="1.5" stroke-linecap="round" stroke-linejoin="round"/>
<path d="M99.6356 123.446L98.6125 124.422" stroke="white" stroke-width="1.5" stroke-linecap="round" stroke-linejoin="round"/>
<path d="M97.3104 120.47L93.3575 124.422" stroke="white" stroke-width="1.5" stroke-linecap="round" stroke-linejoin="round"/>
<path d="M94.7992 117.726L88.2886 124.236" stroke="white" stroke-width="1.5" stroke-linecap="round" stroke-linejoin="round"/>
<path d="M92.8461 114.424L85.0798 122.19" stroke="white" stroke-width="1.5" stroke-linecap="round" stroke-linejoin="round"/>
<path d="M90.6603 111.308L84.0566 117.958" stroke="white" stroke-width="1.5" stroke-linecap="round" stroke-linejoin="round"/>
<path d="M88.6141 108.146L82.3361 114.424" stroke="white" stroke-width="1.5" stroke-linecap="round" stroke-linejoin="round"/>
<path d="M86.6145 104.844L80.0574 111.401" stroke="white" stroke-width="1.5" stroke-linecap="round" stroke-linejoin="round"/>
<path d="M84.7543 101.449L77.3136 108.89" stroke="white" stroke-width="1.5" stroke-linecap="round" stroke-linejoin="round"/>
<path d="M81.871 99.1241L74.0582 106.89" stroke="white" stroke-width="1.5" stroke-linecap="round" stroke-linejoin="round"/>
<path d="M76.5694 99.1241L70.1053 105.588" stroke="white" stroke-width="1.5" stroke-linecap="round" stroke-linejoin="round"/>
<path d="M71.3145 99.1241L65.3619 105.077" stroke="white" stroke-width="1.5" stroke-linecap="round" stroke-linejoin="round"/>
<path d="M79.7318 90.6603L75.0349 95.4038" stroke="white" stroke-width="1.5" stroke-linecap="round" stroke-linejoin="round"/>
<path d="M46.8533 118.33L40.7612 124.422" stroke="white" stroke-width="1.5" stroke-linecap="round" stroke-linejoin="round"/>
<path d="M65.9665 99.2171L58.9908 106.193" stroke="white" stroke-width="1.5" stroke-linecap="round" stroke-linejoin="round"/>
<path d="M78.3366 86.847L71.5935 93.5901" stroke="white" stroke-width="1.5" stroke-linecap="round" stroke-linejoin="round"/>
<path d="M60.7581 99.1706L35.5062 124.422" stroke="white" stroke-width="1.5" stroke-linecap="round" stroke-linejoin="round"/>
<path d="M76.9881 82.9406L71.0355 88.8931" stroke="white" stroke-width="1.5" stroke-linecap="round" stroke-linejoin="round"/>
<path d="M55.3635 99.2636L32.4834 122.19" stroke="white" stroke-width="1.5" stroke-linecap="round" stroke-linejoin="round"/>
<path d="M75.7789 78.8947L70.4309 84.1962" stroke="white" stroke-width="1.5" stroke-linecap="round" stroke-linejoin="round"/>
<path d="M50.2015 99.1706L43.7839 105.635" stroke="white" stroke-width="1.5" stroke-linecap="round" stroke-linejoin="round"/>
<path d="M59.6419 89.7767L54.1544 95.2177" stroke="white" stroke-width="1.5" stroke-linecap="round" stroke-linejoin="round"/>
<path d="M72.1516 77.2671L69.8729 79.4993" stroke="white" stroke-width="1.5" stroke-linecap="round" stroke-linejoin="round"/>
<path d="M60.3395 83.7776L49.3645 94.7527" stroke="white" stroke-width="1.5" stroke-linecap="round" stroke-linejoin="round"/>
<path d="M73.6397 70.4774L70.6169 73.5467" stroke="white" stroke-width="1.5" stroke-linecap="round" stroke-linejoin="round"/>
<path d="M61.5951 77.2671L52.9453 85.9169" stroke="white" stroke-width="1.5" stroke-linecap="round" stroke-linejoin="round"/>
<path d="M72.7096 66.199L65.455 73.4537" stroke="white" stroke-width="1.5" stroke-linecap="round" stroke-linejoin="round"/>
<path d="M56.3401 77.2671L55.224 78.3832" stroke="white" stroke-width="1.5" stroke-linecap="round" stroke-linejoin="round"/>
<path d="M71.826 61.7812L60.0604 73.5468" stroke="white" stroke-width="1.5" stroke-linecap="round" stroke-linejoin="round"/>
<path d="M71.1285 57.2237L57.0377 71.3145" stroke="white" stroke-width="1.5" stroke-linecap="round" stroke-linejoin="round"/>
<path d="M70.338 52.7593L58.4794 64.6179" stroke="white" stroke-width="1.5" stroke-linecap="round" stroke-linejoin="round"/>
<path d="M69.7334 48.0624L59.642 58.1538" stroke="white" stroke-width="1.5" stroke-linecap="round" stroke-linejoin="round"/>
<path d="M69.1753 43.3654L60.6185 51.9222" stroke="white" stroke-width="1.5" stroke-linecap="round" stroke-linejoin="round"/>
<path d="M68.6637 38.622L61.4556 45.8767" stroke="white" stroke-width="1.5" stroke-linecap="round" stroke-linejoin="round"/>
<path d="M68.1988 33.8786L62.1532 39.8776" stroke="white" stroke-width="1.5" stroke-linecap="round" stroke-linejoin="round"/>
<path d="M67.7337 29.0421L62.7577 34.018" stroke="white" stroke-width="1.5" stroke-linecap="round" stroke-linejoin="round"/>
<path d="M67.3152 24.2057L63.4553 28.0655" stroke="white" stroke-width="1.5" stroke-linecap="round" stroke-linejoin="round"/>
<path d="M66.9431 19.3228L63.8738 22.392" stroke="white" stroke-width="1.5" stroke-linecap="round" stroke-linejoin="round"/>
<path d="M66.6176 14.3932L64.2924 16.672" stroke="white" stroke-width="1.5" stroke-linecap="round" stroke-linejoin="round"/>
<path fill-rule="evenodd" clip-rule="evenodd" d="M71.826 95.4038H58.9443L61.13 77.2671H69.5938L71.826 95.4038Z" stroke="white" stroke-width="1.5" stroke-linecap="round" stroke-linejoin="round"/>
<path d="M86.1029 99.1241H44.7141" stroke="white" stroke-width="1.5" stroke-linecap="round" stroke-linejoin="round"/>
<path d="M47.0393 95.4037H81.685H83.7777" stroke="white" stroke-width="1.5" stroke-linecap="round" stroke-linejoin="round"/>
<path d="M77.2671 77.2671H53.5499" stroke="white" stroke-width="1.5" stroke-linecap="round" stroke-linejoin="round"/>
<path d="M54.48 73.5467H76.337" stroke="white" stroke-width="1.5" stroke-linecap="round" stroke-linejoin="round"/>
<path fill-rule="evenodd" clip-rule="evenodd" d="M67.9662 13.0911H63.3158V8.53368C63.2693 7.46408 64.1064 6.5805 65.176 6.534H65.2225H65.1295H65.6875C66.8036 6.534 67.9662 7.41758 67.9662 8.53368V13.0911Z" stroke="white" stroke-width="1.5" stroke-linecap="round" stroke-linejoin="round"/>
<path d="M65.641 1V6.11547" stroke="white" stroke-width="1.5" stroke-linecap="round" stroke-linejoin="round"/>
<path opacity="0.5" d="M17.0628 86.6532C17.2044 86.1594 16.9189 85.6444 16.4251 85.5028C15.9313 85.3612 15.4162 85.6468 15.2746 86.1405C15.1331 86.6343 15.4186 87.1494 15.9124 87.291C16.4062 87.4325 16.9213 87.147 17.0628 86.6532Z" fill="white"/>
<path opacity="0.5" fill-rule="evenodd" clip-rule="evenodd" d="M36.4014 40.3531L43.167 31.3025L52.2176 38.0682L45.452 47.1188L36.4014 40.3531Z" stroke="white" stroke-width="1.5" stroke-linecap="round" stroke-linejoin="round"/>
<path opacity="0.5" fill-rule="evenodd" clip-rule="evenodd" d="M21.8793 64.6831L30.2728 63.5964L31.3596 71.9899L22.966 73.0766L21.8793 64.6831Z" stroke="white" stroke-width="1.5" stroke-linecap="round" stroke-linejoin="round"/>
<path opacity="0.5" d="M34.6692 81.778C35.9248 80.5224 37.1339 79.1737 38.25 77.7321C46.4348 67.2221 47.0858 55.7821 45.5047 47.1323" stroke="white" stroke-width="1.5" stroke-linecap="round" stroke-linejoin="round"/>
<path opacity="0.5" d="M14.9979 91.4044C14.6723 92.8925 14.4398 94.4271 14.2538 95.9618" stroke="white" stroke-width="1.5" stroke-linecap="round" stroke-linejoin="round"/>
<path opacity="0.5" d="M22.9966 72.9422C20.1598 76.8951 19.1832 78.3832 17.7416 82.1035" stroke="white" stroke-width="1.5" stroke-linecap="round" stroke-linejoin="round"/>
<path d="M83.5917 99.1706C88.1026 108.146 93.5436 115.959 100.519 124.422H85.3123" stroke="white" stroke-width="1.5" stroke-linecap="round" stroke-linejoin="round"/>
</svg>
