<svg width="117" height="105" viewBox="0 0 117 105" fill="none" xmlns="http://www.w3.org/2000/svg">
<path fill-rule="evenodd" clip-rule="evenodd" d="M66.173 6.84212C66.173 3.60477 63.6696 1 60.5569 1C57.4443 1 54.9409 3.60063 54.9409 6.83386C54.94 6.849 54.94 6.86419 54.9409 6.87934V15.9671H66.1688V6.87107C66.171 6.86155 66.1724 6.85187 66.173 6.84212Z" stroke="#308CF9" stroke-width="1.4" stroke-linecap="round" stroke-linejoin="round"/>
<path fill-rule="evenodd" clip-rule="evenodd" d="M64.5209 6.82973C64.5879 5.38346 63.8474 4.01771 62.5934 3.27473C61.3394 2.53175 59.7748 2.53175 58.5208 3.27473C57.2668 4.01771 56.5263 5.38346 56.5933 6.82973V15.9671H64.5209V6.82973Z" stroke="#308CF9" stroke-width="1.4" stroke-linecap="round" stroke-linejoin="round"/>
<path d="M56.5933 9.07063C57.482 10.7741 59.0508 13.0398 60.5779 13.321C62.2469 12.9075 63.8533 10.6004 64.5208 9.04996" stroke="#308CF9" stroke-width="1.4" stroke-linecap="round" stroke-linejoin="round"/>
<path d="M71.2968 48.6425H88.4329" stroke="#98CDF9" stroke-width="1.4" stroke-linecap="round" stroke-linejoin="round"/>
<path d="M97.3827 48.6425H105.31" stroke="#98CDF9" stroke-width="1.4" stroke-linecap="round" stroke-linejoin="round"/>
<path d="M97.3034 48.6301C97.3837 48.3107 97.4271 47.9834 97.4328 47.6543C97.4328 46.1245 96.3605 44.7064 94.7291 43.9001C94.0626 41.3791 91.8702 39.5444 89.2504 39.3154C86.6306 39.0864 84.1479 40.5124 83.0463 42.8789C80.8503 42.9895 79.1311 44.7932 79.1451 46.9721C79.1696 47.535 79.2735 48.0916 79.4539 48.6259" stroke="#98CDF9" stroke-width="1.4" stroke-linecap="round" stroke-linejoin="round"/>
<path d="M11.2183 100.916L28.3585 87.1104" stroke="#98CDF9" stroke-width="1.4" stroke-linecap="round" stroke-linejoin="round"/>
<path d="M29.2681 59.3137C34.6044 53.2269 42.8734 50.5204 50.8186 52.2602" stroke="#98CDF9" stroke-width="1.4" stroke-linecap="round" stroke-linejoin="round"/>
<path d="M31.2249 90.0624C24.3029 83.9149 21.9814 74.1437 25.4086 65.5817" stroke="#98CDF9" stroke-width="1.4" stroke-linecap="round" stroke-linejoin="round"/>
<path d="M71.0964 76.7574H50.2344V79.6516H71.0964V76.7574Z" stroke="#1F9DBF" stroke-width="1.4" stroke-linecap="round" stroke-linejoin="round"/>
<path d="M18.2153 101.04L37.7339 85.072C40.0471 83.1796 43.39 83.1796 45.7032 85.072L47.6517 86.668L48.7824 87.5817" stroke="#98CDF9" stroke-width="1.4" stroke-linecap="round" stroke-linejoin="round"/>
<path d="M116 98.9724L88.8167 76.745C86.1941 74.5972 82.4019 74.5972 79.7793 76.745L77.305 78.7668L72.3816 82.7567" stroke="#98CDF9" stroke-width="1.4" stroke-linecap="round" stroke-linejoin="round"/>
<path d="M84.6526 104L72.2397 93.7091H48.8742L36.5823 103.975" stroke="#308CF9" stroke-width="1.4" stroke-linecap="round" stroke-linejoin="round"/>
<path d="M72.3482 79.6516H48.9827V93.7091H72.3482V79.6516Z" stroke="#308CF9" stroke-width="1.4" stroke-linecap="round" stroke-linejoin="round"/>
<path d="M52.3207 79.6516V93.7091" stroke="#308CF9" stroke-width="1.4" stroke-linecap="round" stroke-linejoin="round"/>
<path d="M55.6586 79.6516V93.7091" stroke="#308CF9" stroke-width="1.4" stroke-linecap="round" stroke-linejoin="round"/>
<path d="M58.9966 79.6516V93.7091" stroke="#308CF9" stroke-width="1.4" stroke-linecap="round" stroke-linejoin="round"/>
<path d="M62.3345 79.6516V93.7091" stroke="#308CF9" stroke-width="1.4" stroke-linecap="round" stroke-linejoin="round"/>
<path d="M65.6724 79.6516V93.7091" stroke="#308CF9" stroke-width="1.4" stroke-linecap="round" stroke-linejoin="round"/>
<path d="M69.0103 79.6516V93.7091" stroke="#308CF9" stroke-width="1.4" stroke-linecap="round" stroke-linejoin="round"/>
<path d="M27.2861 15.9795V20.114" stroke="#308CF9" stroke-width="1.4" stroke-linecap="round" stroke-linejoin="round"/>
<path d="M94.0448 15.9795V20.114" stroke="#308CF9" stroke-width="1.4" stroke-linecap="round" stroke-linejoin="round"/>
<path fill-rule="evenodd" clip-rule="evenodd" d="M71.1549 60.7691L64.5208 56.6263V15.9795H71.1966L71.1549 60.7691Z" stroke="#308CF9" stroke-width="1.4" stroke-linecap="round" stroke-linejoin="round"/>
<path fill-rule="evenodd" clip-rule="evenodd" d="M52.3457 58.6233L52.3707 76.7574H69.0103V67.926L52.3457 58.6233Z" stroke="#308CF9" stroke-width="1.4" stroke-linecap="round" stroke-linejoin="round"/>
<path d="M67.7585 15.9795V58.5654" stroke="#308CF9" stroke-width="1.4" stroke-linecap="round" stroke-linejoin="round"/>
<path fill-rule="evenodd" clip-rule="evenodd" d="M51.0688 16.0087L64.5207 15.9795H51.0688V16.0087Z" stroke="#308CF9" stroke-width="1.4" stroke-linecap="round" stroke-linejoin="round"/>
<path fill-rule="evenodd" clip-rule="evenodd" d="M64.5749 56.6263L64.5207 15.9671L64.5749 25.6502C60.0729 25.307 56.493 24.4388 53.9895 23.2315V50.0647L51.0688 48.2497V57.8625L70.2619 68.6123V60.1448L64.5749 56.6263Z" stroke="#308CF9" stroke-width="1.4" stroke-linecap="round" stroke-linejoin="round"/>
<path d="M16.4338 65.5817C16.3873 65.3818 16.3566 65.1786 16.342 64.974C16.346 63.6186 17.3738 62.481 18.7328 62.3279C18.7168 62.1989 18.7084 62.0691 18.7078 61.9392C18.7078 59.4295 21.3239 57.478 24.5492 57.478C27.1027 57.478 29.2682 58.553 30.0651 60.6203H30.1277C32.7062 60.6203 34.7966 62.2121 34.7966 64.3869C34.8306 64.7947 34.7648 65.2046 34.6047 65.5817" stroke="#98CDF9" stroke-width="1.4" stroke-linecap="round" stroke-linejoin="round"/>
<path d="M1 65.5941H18.9414" stroke="#98CDF9" stroke-width="1.4" stroke-linecap="round" stroke-linejoin="round"/>
<path d="M25.6172 65.5941H42.7241" stroke="#98CDF9" stroke-width="1.4" stroke-linecap="round" stroke-linejoin="round"/>
<path d="M92.8567 48.6425C92.8567 48.7066 92.8025 48.7694 92.7222 48.7694C92.6419 48.7694 92.5877 48.7066 92.5877 48.6425C92.5877 48.5784 92.6419 48.5156 92.7222 48.5156C92.8025 48.5156 92.8567 48.5784 92.8567 48.6425Z" fill="#8ADBDB" stroke="#98CDF9" stroke-width="1.4"/>
<path d="M47.8196 65.5941C47.8196 65.6582 47.7654 65.721 47.6851 65.721C47.6048 65.721 47.5506 65.6582 47.5506 65.5941C47.5506 65.53 47.6048 65.4672 47.6851 65.4672C47.7654 65.4672 47.8196 65.53 47.8196 65.5941Z" fill="#8AD1DD" stroke="#98CDF9" stroke-width="1.4"/>
<path fill-rule="evenodd" clip-rule="evenodd" d="M64.5207 25.6626C53.1843 24.7985 48.4069 20.6102 46.3457 16.0208L64.5166 15.9795V25.6626H64.5207Z" stroke="#308CF9" stroke-width="1.4" stroke-linecap="round" stroke-linejoin="round"/>
<path fill-rule="evenodd" clip-rule="evenodd" d="M50.6516 21.3627V48.0016L54.9895 50.0689V23.2398C53.3628 22.6609 51.7361 22.0821 50.6516 21.3627Z" stroke="#308CF9" stroke-width="1.4" stroke-linecap="round" stroke-linejoin="round"/>
<path d="M64.5751 26.1877L64.5208 15.9671H71.1967V25.6295C83.2007 24.3643 94.2743 20.9285 103.662 15.9671H17.4143C27.7558 21.3035 39.0403 24.6097 50.6476 25.7039V21.3627C51.482 22.0821 52.7338 22.6568 53.9855 23.2398V25.89" stroke="#308CF9" stroke-width="1.4" stroke-linecap="round" stroke-linejoin="round"/>
</svg>
