<svg width="112" height="112" viewBox="0 0 112 112" fill="none" xmlns="http://www.w3.org/2000/svg">
<g clip-path="url(#clip0)">
<path fill-rule="evenodd" clip-rule="evenodd" d="M43.5641 0C36.9838 9.32021 33.1219 20.6715 33.1219 32.9186C33.1219 64.6239 59.004 90.3262 90.9311 90.3262C95.127 90.3262 99.2184 89.8823 103.16 89.0391C92.7343 102.972 76.0341 112 57.2106 112C25.614 112 0 86.5639 0 55.1869C0 28.4801 18.5565 6.07733 43.5641 1.99532e-06L43.5641 0Z" fill="black" fill-opacity="0.6"/>
<path fill-rule="evenodd" clip-rule="evenodd" d="M71.0153 25.1413C70.7014 24.696 70.2953 24.0371 69.0676 22.3276C69.0932 22.353 63.1907 14.8109 63.1907 14.8109C62.4645 13.8829 62.6483 13.7282 63.5934 14.4593C63.5934 14.4593 71.1224 20.2838 71.1224 20.2838C72.8109 21.4834 73.4905 21.9048 73.9442 22.221C74.3919 21.9088 75.0544 21.5049 76.7731 20.2838C76.7475 20.3092 84.3304 14.4384 84.3304 14.4384C85.2634 13.7161 85.4189 13.8989 84.6839 14.8389L78.8279 22.3276C77.6219 24.007 77.1982 24.6829 76.8802 25.1342C77.1941 25.5795 77.6003 26.2384 78.8279 27.9479C78.8023 27.9225 84.7049 35.4646 84.7049 35.4646C85.431 36.3926 85.2473 36.5473 84.3022 35.8162L76.7731 29.9917C75.0846 28.7921 74.4051 28.3707 73.9514 28.0544C73.5037 28.3666 72.8411 28.7706 71.1224 29.9917C71.148 29.9662 63.5652 35.8371 63.5652 35.8371C62.6322 36.5593 62.4766 36.3766 63.2117 35.4365C63.2117 35.4365 69.0676 27.9479 69.0676 27.9479C70.2737 26.2685 70.6974 25.5926 71.0153 25.1413Z" fill="white"/>
<path fill-rule="evenodd" clip-rule="evenodd" d="M104.634 57.8115C104.645 57.8232 101.945 54.3727 101.945 54.3727C101.61 53.9449 101.693 53.8718 102.126 54.2068L105.575 56.8752C106.349 57.4248 106.66 57.6178 106.868 57.7627C107.073 57.6197 107.377 57.4346 108.164 56.8752C108.152 56.8868 111.621 54.201 111.621 54.201C112.051 53.868 112.125 53.95 111.788 54.3807L109.105 57.8115C108.553 58.5809 108.359 58.8906 108.213 59.0973C108.357 59.3013 108.543 59.6032 109.105 60.3864C109.094 60.3748 111.794 63.8252 111.794 63.8252C112.129 64.2531 112.046 64.3261 111.613 63.9912C111.613 63.9912 108.164 61.3228 108.164 61.3228C107.39 60.7732 107.079 60.5801 106.871 60.4352C106.666 60.5783 106.363 60.7633 105.575 61.3228C105.587 61.3111 102.118 63.9969 102.118 63.9969C101.688 64.33 101.614 64.2479 101.951 63.8173L104.634 60.3864C105.186 59.617 105.38 59.3073 105.526 59.1006C105.382 58.8966 105.196 58.5947 104.634 57.8115Z" fill="white"/>
</g>
<defs>
<clipPath id="clip0">
<rect width="112" height="112" fill="white"/>
</clipPath>
</defs>
</svg>
