<svg width="112" height="112" viewBox="0 0 112 112" fill="none" xmlns="http://www.w3.org/2000/svg">
<path fill-rule="evenodd" clip-rule="evenodd" d="M54.606 3C48.6444 11.9041 45.1456 22.7487 45.1456 34.449C45.1456 64.7389 68.5941 89.2937 97.5193 89.2937C101.321 89.2937 105.027 88.8697 108.599 88.0642C99.153 101.375 84.023 110 66.9693 110C38.3437 110 15.138 85.6994 15.138 55.7232C15.138 30.2087 31.9498 8.80602 54.606 3V3Z" fill="black" fill-opacity="0.6"/>
<path fill-rule="evenodd" clip-rule="evenodd" d="M69.6035 16.664C69.3191 16.2386 68.9511 15.6091 67.8389 13.9759C67.8621 14.0002 62.5145 6.79479 62.5145 6.79479C61.8566 5.90822 62.0231 5.7604 62.8793 6.45889L69.7005 12.0234C71.2302 13.1694 71.8459 13.572 72.2569 13.8741C72.6625 13.5759 73.2628 13.1899 74.8199 12.0234C74.7967 12.0477 81.6666 6.43893 81.6666 6.43893C82.5118 5.7489 82.6528 5.92352 81.9868 6.82157L76.6815 13.9759C75.5888 15.5803 75.205 16.2261 74.9169 16.6572C75.2013 17.0826 75.5693 17.7121 76.6815 19.3453C76.6583 19.321 82.0058 26.5264 82.0058 26.5264C82.6637 27.413 82.4973 27.5608 81.641 26.8623L74.8199 21.2979C73.2902 20.1518 72.6745 19.7492 72.2634 19.4471C71.8578 19.7454 71.2576 20.1313 69.7005 21.2979C69.7237 21.2736 62.8538 26.8823 62.8538 26.8823C62.0085 27.5723 61.8676 27.3977 62.5336 26.4996L67.8389 19.3453C68.9315 17.7409 69.3154 17.0951 69.6035 16.664Z" fill="white"/>
<path fill-rule="evenodd" clip-rule="evenodd" d="M105.326 53.3984C105.337 53.4095 102.891 50.1131 102.891 50.1131C102.587 49.7044 102.662 49.6345 103.054 49.9545C103.054 49.9545 106.179 52.5039 106.179 52.5039C106.88 53.0289 107.162 53.2133 107.35 53.3518C107.536 53.2151 107.811 53.0383 108.525 52.5039C108.514 52.515 111.657 49.9491 111.657 49.9491C112.047 49.6309 112.113 49.7093 111.808 50.1207L109.378 53.3984C108.877 54.1334 108.701 54.4293 108.569 54.6268C108.699 54.8217 108.868 55.1101 109.378 55.8583C109.367 55.8472 111.813 59.1436 111.813 59.1436C112.117 59.5524 112.042 59.6222 111.65 59.3022L108.525 56.7529C107.824 56.2278 107.542 56.0434 107.353 55.905C107.168 56.0416 106.893 56.2184 106.179 56.7529C106.19 56.7417 103.047 59.3077 103.047 59.3077C102.657 59.6258 102.591 59.5475 102.896 59.136L105.326 55.8583C105.827 55.1233 106.003 54.8274 106.135 54.6299C106.005 54.435 105.836 54.1466 105.326 53.3984Z" fill="white"/>
<path fill-rule="evenodd" clip-rule="evenodd" d="M28.6747 100.335H10.2675C4.59693 100.335 0 95.666 0 89.9059C0 84.1459 4.59693 79.4765 10.2675 79.4765C11.9787 79.4765 13.5922 79.9017 15.011 80.6538C16.9866 74.8331 22.4266 70.6516 28.828 70.6516C36.8977 70.6516 43.4395 77.2965 43.4395 85.4935C43.4395 85.6615 43.4368 85.8288 43.4313 85.9955C45.787 87.281 47.3886 89.8074 47.3886 92.7139C47.3886 96.9231 44.0293 100.335 39.8854 100.335H28.828C28.8204 100.335 28.8127 100.335 28.805 100.335C28.805 100.335 28.805 100.335 28.805 100.335H28.6747H28.828H28.6747Z" fill="white"/>
<path fill-rule="evenodd" clip-rule="evenodd" d="M37.8891 49.9418H19.4819C13.8113 49.9418 9.21442 45.2724 9.21442 39.5123C9.21442 33.7523 13.8113 29.0829 19.4819 29.0829C21.1931 29.0829 22.8066 29.5081 24.2254 30.2602C26.201 24.4395 31.641 20.2579 38.0425 20.2579C46.1122 20.2579 52.6539 26.9029 52.6539 35.0999C52.6539 35.2679 52.6512 35.4352 52.6457 35.6019C55.0014 36.8874 56.603 39.4138 56.603 42.3203C56.603 46.5295 53.2437 49.9418 49.0998 49.9418H38.0425C38.0348 49.9418 38.0271 49.9418 38.0194 49.9418C38.0194 49.9418 38.0194 49.9418 38.0194 49.9418H37.8891H38.0425H37.8891Z" fill="white"/>
</svg>
