<svg width="112" height="124" viewBox="0 0 112 124" fill="none" xmlns="http://www.w3.org/2000/svg">
<path fill-rule="evenodd" clip-rule="evenodd" d="M67.771 69.4841H24.2667C10.8646 69.4841 0 58.5539 0 45.0708C0 31.5877 10.8646 20.6574 24.2667 20.6574C28.311 20.6574 32.1243 21.6528 35.4776 23.4133C40.1469 9.78813 53.0039 0 68.1333 0C87.2056 0 102.667 15.5546 102.667 34.7421C102.667 35.1353 102.66 35.527 102.647 35.9171C108.215 38.9263 112 44.8402 112 51.6436C112 61.4967 104.061 69.4841 94.2667 69.4841H68.1333C68.0788 69.4841 67.771 69.4841 67.771 69.4841Z" fill="black" fill-opacity="0.6"/>
<path fill-rule="evenodd" clip-rule="evenodd" d="M32.9158 75.3512C33.2012 74.2835 34.2997 73.6508 35.3645 73.9368C36.4314 74.2233 37.0647 75.3219 36.7795 76.3887L31.0839 97.6911C30.7985 98.7587 29.7 99.3914 28.6352 99.1055C27.5683 98.819 26.935 97.7203 27.2202 96.6535L32.9158 75.3512ZM64.879 75.4812C65.1644 74.4136 66.2629 73.7809 67.3277 74.0668C68.3946 74.3533 69.0279 75.4519 68.7427 76.5187L63.0471 97.8211C62.7616 98.8888 61.6631 99.5214 60.5984 99.2355C59.5314 98.949 58.8982 97.8504 59.1834 96.7836L64.879 75.4812ZM84.3386 75.2636C84.6236 74.1976 85.7218 73.5663 86.7865 73.8522C87.8534 74.1388 88.4865 75.2384 88.2023 76.3011L84.9208 88.5747C84.6358 89.6407 83.5376 90.2719 82.4729 89.986C81.4059 89.6995 80.7729 88.5998 81.0571 87.5372L84.3386 75.2636ZM43.097 75.6366C43.3833 74.5658 44.4825 73.9306 45.5473 74.2165C46.6142 74.503 47.2457 75.6083 46.9607 76.6741L38.1624 109.581C37.8761 110.652 36.7769 111.287 35.7121 111.002C34.6452 110.715 34.0137 109.61 34.2987 108.544L43.097 75.6366ZM54.377 75.6532C54.6624 74.5858 55.7609 73.9533 56.8256 74.2393C57.8926 74.5258 58.5269 75.6205 58.2407 76.6908L45.9882 122.517C45.7028 123.585 44.6043 124.217 43.5396 123.931C42.4726 123.645 41.8383 122.55 42.1245 121.48L54.377 75.6532ZM74.6499 75.4869C74.9362 74.4161 76.0354 73.7809 77.1002 74.0668C78.1671 74.3533 78.7986 75.4586 78.5136 76.5244L69.7153 109.432C69.429 110.503 68.3298 111.138 67.265 110.852C66.1981 110.565 65.5666 109.46 65.8516 108.394L74.6499 75.4869Z" fill="#ADE8FF"/>
</svg>
