<svg width="112" height="131" viewBox="0 0 112 131" fill="none" xmlns="http://www.w3.org/2000/svg">
<g clip-path="url(#clip0)">
<path fill-rule="evenodd" clip-rule="evenodd" d="M67.8449 79.8696H24.4133C11.0335 79.8696 0.187134 69.7665 0.187134 57.3035C0.187134 44.8406 11.0335 34.7375 24.4133 34.7375C28.4508 34.7375 32.2577 35.6575 35.6055 37.2848C40.2669 24.6906 53.1025 15.6431 68.2066 15.6431C87.247 15.6431 102.682 30.0207 102.682 47.7564C102.682 48.1199 102.676 48.4819 102.663 48.8425C108.221 51.624 112 57.0904 112 63.379C112 72.4865 104.074 79.8696 94.2963 79.8696H68.2066C68.1522 79.8696 67.8449 79.8696 67.8449 79.8696H68.2066H67.8449Z" fill="white"/>
<path fill-rule="evenodd" clip-rule="evenodd" d="M84.7213 0.895691C81.5042 4.90879 79.5996 9.88803 79.5996 15.2816C79.5996 28.5741 91.1679 39.3497 105.438 39.3497C106.996 39.3497 108.521 39.2214 110.003 38.9753C105.368 44.4528 98.2232 47.9636 90.207 47.9636C76.2371 47.9636 64.9124 37.3013 64.9124 24.1488C64.9124 12.7699 73.3889 3.25489 84.7213 0.895691Z" fill="black" fill-opacity="0.6"/>
<path fill-rule="evenodd" clip-rule="evenodd" d="M100.221 10.6751C100.232 10.6852 97.752 7.71717 97.752 7.71717C97.4444 7.34913 97.5202 7.28627 97.9179 7.57439L101.086 9.86972C101.797 10.3424 102.083 10.5085 102.274 10.6331C102.462 10.5101 102.741 10.3509 103.464 9.86972C103.453 9.87974 106.639 7.56945 106.639 7.56945C107.035 7.28299 107.102 7.35355 106.793 7.724C106.793 7.724 104.329 10.6751 104.329 10.6751C103.821 11.3369 103.643 11.6033 103.509 11.7812C103.641 11.9566 103.812 12.2163 104.329 12.89C104.318 12.88 106.798 15.848 106.798 15.848C107.106 16.216 107.03 16.2789 106.632 15.9907C106.632 15.9907 103.464 13.6954 103.464 13.6954C102.753 13.2227 102.467 13.0566 102.277 12.932C102.088 13.055 101.809 13.2142 101.086 13.6954C101.097 13.6854 97.9106 15.9957 97.9106 15.9957C97.5154 16.2821 97.448 16.2116 97.7573 15.8411L100.221 12.89C100.729 12.2282 100.907 11.9618 101.041 11.784C100.909 11.6085 100.738 11.3488 100.221 10.6751Z" fill="white"/>
<path fill-rule="evenodd" clip-rule="evenodd" d="M7.59524 9.58675C7.30695 9.20372 6.93389 8.6369 5.80629 7.16643C5.82977 7.18831 0.408346 0.700766 0.408346 0.700766C-0.258649 -0.0974776 -0.0898575 -0.230563 0.778203 0.398332L7.69361 5.40843C9.24446 6.44027 9.86867 6.80277 10.2854 7.0748C10.6966 6.80626 11.3051 6.45876 12.8838 5.40843C12.8603 5.43031 19.8251 0.380365 19.8251 0.380365C20.682 -0.240926 20.8249 -0.0837003 20.1497 0.724878C20.1497 0.724878 14.7711 7.16643 14.7711 7.16643C13.6633 8.61101 13.2742 9.19244 12.9821 9.58061C13.2704 9.96364 13.6435 10.5305 14.7711 12.0009C14.7476 11.9791 20.169 18.4666 20.169 18.4666C20.836 19.2648 20.6672 19.3979 19.7992 18.769L12.8838 13.7589C11.3329 12.7271 10.7087 12.3646 10.292 12.0926C9.88077 12.3611 9.27226 12.7086 7.69361 13.7589C7.7171 13.7371 0.752316 18.787 0.752316 18.787C-0.104648 19.4083 -0.247524 19.2511 0.427634 18.4425C0.427634 18.4425 5.80628 12.0009 5.80629 12.0009C6.91404 10.5564 7.3032 9.97492 7.59524 9.58675Z" fill="white"/>
<path fill-rule="evenodd" clip-rule="evenodd" d="M33.1329 85.7421C33.4186 84.7488 34.5181 84.1603 35.5839 84.4263C36.6518 84.6928 37.2856 85.7148 37.0001 86.7073L31.2994 106.525C31.0137 107.518 29.9142 108.107 28.8485 107.841C27.7806 107.574 27.1467 106.552 27.4322 105.56L33.1329 85.7421ZM65.125 85.8631C65.4108 84.8698 66.5103 84.2813 67.576 84.5473C68.6439 84.8138 69.2777 85.8358 68.9922 86.8283L63.2915 106.646C63.0058 107.639 61.9063 108.228 60.8406 107.962C59.7727 107.695 59.1388 106.673 59.4243 105.681L65.125 85.8631ZM84.6023 85.6606C84.8876 84.6689 85.9867 84.0816 87.0524 84.3476C88.1203 84.6142 88.7539 85.6372 88.4695 86.6258L85.185 98.0439C84.8997 99.0356 83.8006 99.6228 82.7349 99.3569C81.667 99.0903 81.0334 98.0673 81.3178 97.0787L84.6023 85.6606ZM43.3234 86.0076C43.6099 85.0114 44.7101 84.4205 45.7758 84.6865C46.8437 84.953 47.4758 85.9813 47.1906 86.9728L38.3842 117.586C38.0977 118.583 36.9975 119.174 35.9318 118.908C34.8639 118.641 34.2318 117.613 34.517 116.621L43.3234 86.0076ZM54.6136 86.0231C54.8992 85.0301 55.9987 84.4417 57.0644 84.7077C58.1323 84.9742 58.7672 85.9927 58.4808 86.9883L46.2172 129.621C45.9315 130.614 44.8321 131.202 43.7663 130.936C42.6984 130.67 42.0635 129.651 42.35 128.655L54.6136 86.0231ZM74.9049 85.8683C75.1914 84.8722 76.2916 84.2813 77.3573 84.5473C78.4252 84.8138 79.0573 85.842 78.7721 86.8335L69.9657 117.447C69.6792 118.443 68.579 119.034 67.5133 118.768C66.4454 118.502 65.8133 117.474 66.0985 116.482L74.9049 85.8683Z" fill="#ADE8FF"/>
</g>
<defs>
<clipPath id="clip0">
<rect width="112" height="131" fill="white"/>
</clipPath>
</defs>
</svg>
