<svg width="112" height="124" viewBox="0 0 112 124" fill="none" xmlns="http://www.w3.org/2000/svg">
<path fill-rule="evenodd" clip-rule="evenodd" d="M67.771 69.7763H24.2667C10.8646 69.7763 0 58.8001 0 45.2603C0 31.7205 10.8646 20.7443 24.2667 20.7443C28.311 20.7443 32.1243 21.7438 35.4776 23.5117C40.1469 9.82929 53.0039 0 68.1333 0C87.2056 0 102.667 15.62 102.667 34.8881C102.667 35.2831 102.66 35.6764 102.647 36.0682C108.215 39.0899 112 45.0288 112 51.8608C112 61.7552 104.061 69.7763 94.2667 69.7763H68.1333C68.0788 69.7763 67.771 69.7763 67.771 69.7763H68.1333H67.771Z" fill="black" fill-opacity="0.6"/>
<path fill-rule="evenodd" clip-rule="evenodd" d="M22.1175 75.6119C22.4013 74.5499 23.4933 73.9207 24.5517 74.205C25.6124 74.49 26.2419 75.5828 25.9584 76.6438L20.2965 97.8321C20.0127 98.894 18.9207 99.5233 17.8623 99.2389C16.8017 98.9539 16.1721 97.8612 16.4557 96.8001L22.1175 75.6119ZM53.8916 75.7412C54.1753 74.6793 55.2673 74.05 56.3258 74.3344C57.3864 74.6194 58.0159 75.7121 57.7324 76.7732L52.0705 97.9614C51.7868 99.0233 50.6948 99.6526 49.6363 99.3682C48.5757 99.0833 47.9462 97.9905 48.2297 96.9294L53.8916 75.7412ZM73.2361 75.5247C73.5194 74.4645 74.611 73.8366 75.6695 74.121C76.7301 74.406 77.3594 75.4997 77.0769 76.5567L73.8148 88.7645C73.5315 89.8248 72.4398 90.4527 71.3814 90.1683C70.3207 89.8833 69.6915 88.7895 69.9739 87.7326L73.2361 75.5247ZM32.2385 75.8957C32.5231 74.8307 33.6158 74.1989 34.6742 74.4833C35.7349 74.7682 36.3626 75.8676 36.0794 76.9277L27.333 109.659C27.0484 110.724 25.9558 111.356 24.8973 111.071C23.8367 110.786 23.2089 109.687 23.4922 108.627L32.2385 75.8957ZM43.4518 75.9123C43.7355 74.8506 44.8274 74.2215 45.8859 74.5059C46.9465 74.7909 47.5771 75.8798 47.2926 76.9443L35.1126 122.525C34.8289 123.587 33.7369 124.216 32.6785 123.932C31.6178 123.647 30.9873 122.558 31.2717 121.493L43.4518 75.9123ZM63.6047 75.7469C63.8893 74.6818 64.982 74.05 66.0405 74.3344C67.1011 74.6194 67.7288 75.7187 67.4456 76.7788L58.6993 109.51C58.4147 110.575 57.322 111.207 56.2635 110.922C55.2029 110.637 54.5751 109.538 54.8584 108.478L63.6047 75.7469Z" fill="#ADE8FF"/>
<path fill-rule="evenodd" clip-rule="evenodd" d="M79.5265 41.8658L72.2366 69.2326H84.1656L80.852 97.6868L101.396 57.6133L91.5502 57.6133L97.42 41.8658H79.5265Z" fill="#FFF467"/>
</svg>
