<svg width="112" height="112" viewBox="0 0 112 112" fill="none" xmlns="http://www.w3.org/2000/svg">
<path fill-rule="evenodd" clip-rule="evenodd" d="M67.771 84H24.2667C10.8646 84 0 72.9886 0 59.4054C0 45.8222 10.8646 34.8108 24.2667 34.8108C28.311 34.8108 32.1243 35.8136 35.4776 37.5871C40.1469 23.8608 53.0039 14 68.1333 14C87.2056 14 102.667 29.67 102.667 49C102.667 49.3962 102.66 49.7908 102.647 50.1838C108.215 53.2153 112 59.1731 112 66.027C112 75.9532 104.061 84 94.2667 84H68.1333C68.0788 84 67.771 84 67.771 84H68.1333H67.771Z" fill="black" fill-opacity="0.6"/>
<path fill-rule="evenodd" clip-rule="evenodd" d="M54.9637 76.1308L44.6846 82.0654L45.0169 82.6408C45.5698 83.5985 45.2406 84.8236 44.2859 85.3748C43.3293 85.9271 42.1064 85.5998 41.5528 84.6408L41.2205 84.0654L38.3295 85.7345C37.3753 86.2854 36.1529 85.9546 35.6017 85C35.0494 84.0434 35.3798 82.8188 36.3295 82.2704L39.2205 80.6013L38.8883 80.0259C38.3354 79.0682 38.6646 77.843 39.6193 77.2919C40.5758 76.7396 41.7988 77.0669 42.3524 78.0259L42.6846 78.6013L52.9637 72.6667L42.6846 66.732L42.3524 67.3075C41.7995 68.2651 40.5739 68.5926 39.6193 68.0415C38.6627 67.4892 38.3347 66.2664 38.8883 65.3075L39.2205 64.732L36.3295 63.0629C35.3753 62.512 35.0506 61.288 35.6017 60.3333C36.154 59.3767 37.3798 59.0505 38.3295 59.5988L41.2205 61.2679L41.5528 60.6925C42.1057 59.7349 43.3313 59.4074 44.2859 59.9585C45.2425 60.5108 45.5705 61.7336 45.0169 62.6925L44.6846 63.2679L54.9637 69.2026V57.3333H54.2993C53.1935 57.3333 52.297 56.4357 52.297 55.3333C52.297 54.2288 53.1919 53.3333 54.2993 53.3333H54.9637V49.995C54.9637 48.8932 55.8614 48 56.9637 48C58.0683 48 58.9637 48.8984 58.9637 49.995V53.3333H59.6281C60.7339 53.3333 61.6304 54.231 61.6304 55.3333C61.6304 56.4379 60.7354 57.3333 59.6281 57.3333H58.9637V69.2026L69.2427 63.2679L68.9105 62.6925C68.3576 61.7349 68.6868 60.5097 69.6415 59.9585C70.598 59.4063 71.821 59.7336 72.3746 60.6925L72.7068 61.2679L75.5979 59.5988C76.5521 59.0479 77.7745 59.3787 78.3256 60.3333C78.8779 61.2899 78.5476 62.5146 77.5979 63.0629L74.7068 64.732L75.0391 65.3075C75.592 66.2651 75.2628 67.4903 74.3081 68.0415C73.3515 68.5937 72.1286 68.2664 71.575 67.3075L71.2427 66.732L60.9637 72.6667L71.2427 78.6013L71.575 78.0259C72.1279 77.0682 73.3535 76.7407 74.3081 77.2919C75.2647 77.8442 75.5927 79.0669 75.0391 80.0259L74.7068 80.6013L77.5979 82.2704C78.5521 82.8213 78.8768 84.0454 78.3256 85C77.7734 85.9566 76.5476 86.2829 75.5979 85.7345L72.7068 84.0654L72.3746 84.6408C71.8217 85.5985 70.5961 85.9259 69.6415 85.3748C68.6849 84.8225 68.3569 83.5998 68.9105 82.6408L69.2427 82.0654L58.9637 76.1308V88H59.6281C60.7339 88 61.6304 88.8977 61.6304 90C61.6304 91.1046 60.7354 92 59.6281 92H58.9637V95.3383C58.9637 96.4401 58.066 97.3333 56.9637 97.3333C55.8591 97.3333 54.9637 96.4349 54.9637 95.3383V92H54.2993C53.1935 92 52.297 91.1023 52.297 90C52.297 88.8954 53.1919 88 54.2993 88H54.9637V76.1308Z" fill="white"/>
</svg>
